<?xml version="1.0" encoding="utf-8"?>
<!-- Generator: Adobe Illustrator 18.0.0, SVG Export Plug-In . SVG Version: 6.00 Build 0)  -->
<!DOCTYPE svg PUBLIC "-//W3C//DTD SVG 1.1//EN" "http://www.w3.org/Graphics/SVG/1.1/DTD/svg11.dtd">
<svg version="1.1" id="Layer_1" xmlns="http://www.w3.org/2000/svg" xmlns:xlink="http://www.w3.org/1999/xlink" x="0px" y="0px"
	 width="100px" height="100px" viewBox="0 0 100 100" enable-background="new 0 0 100 100" xml:space="preserve">
<g>
	<path d="M72.1,82.8c-1.4,0-2.5-1.1-2.5-2.5c0-1.4,1.1-2.5,2.5-2.5h5.5v-6.1c0-2.8-2.1-5.1-4.9-5.1H60.1v27.3h12.7
		c2.8,0,4.9-2.3,4.9-5.1v-6.1H72.1z M72.1,82.8"/>
	<path d="M55,39.7c0-0.1,0.2-0.2,0.2-0.3h2.7c10.9,0,19.7-8.8,19.7-19.7C77.6,8.8,68.8,0,57.9,0H42.1C31.2,0,22.4,8.8,22.4,19.7
		c0,10.9,8.8,19.7,19.7,19.7h3c0,0.1-0.2,0.2-0.2,0.3v55.2c0,2.8,2.3,5.1,5.1,5.1c2.8,0,5.1-2.3,5.1-5.1V39.7z M32.5,19.7
		c0-5.3,4.3-9.6,9.6-9.6h15.8c5.3,0,9.6,4.3,9.6,9.6c0,5.3-4.3,9.6-9.6,9.6H42.1C36.8,29.3,32.5,25,32.5,19.7L32.5,19.7z M32.5,19.7
		"/>
</g>
</svg>
