<?xml version="1.0" encoding="utf-8"?>
<!-- Generator: Adobe Illustrator 18.0.0, SVG Export Plug-In . SVG Version: 6.00 Build 0)  -->
<!DOCTYPE svg PUBLIC "-//W3C//DTD SVG 1.1//EN" "http://www.w3.org/Graphics/SVG/1.1/DTD/svg11.dtd">
<svg version="1.1" id="Layer_1" xmlns="http://www.w3.org/2000/svg" xmlns:xlink="http://www.w3.org/1999/xlink" x="0px" y="0px"
	 width="100px" height="100px" viewBox="0 0 100 100" enable-background="new 0 0 100 100" xml:space="preserve">
<path d="M40.7,38c-0.5,0-1.1-0.1-1.6-0.3c-2.1-0.9-3.1-3.3-2.2-5.5c5.7-13.4,21.1-19.6,34.5-14c2.1,0.9,3.1,3.3,2.2,5.5
	c-0.9,2.1-3.3,3.1-5.5,2.2c-9.1-3.9-19.7,0.4-23.5,9.5C43.9,37.1,42.4,38,40.7,38L40.7,38z M40.7,38"/>
<path d="M87.9,69.1c15.8-15.8,15.8-41.5,0-57.2c-15.8-15.8-41.5-15.8-57.2,0c-13.4,13.4-15.4,33.3-6.1,48.8c0,0,0.7,1.1-0.2,2
	L3.7,83.3c-4.1,4.1-5.1,9.9-1.4,13.5l0.6,0.6c3.6,3.6,9.4,2.7,13.5-1.4L37,75.4c0.9-0.9,2.1-0.3,2.1-0.3
	C54.6,84.5,74.5,82.5,87.9,69.1L87.9,69.1z M38.2,61.6c-11.7-11.7-11.7-30.6,0-42.3c11.7-11.7,30.6-11.7,42.3,0
	c11.7,11.7,11.7,30.6,0,42.3C68.8,73.3,49.8,73.3,38.2,61.6L38.2,61.6z M38.2,61.6"/>
</svg>
