<?xml version="1.0" encoding="utf-8"?>
<!-- Generator: Adobe Illustrator 18.0.0, SVG Export Plug-In . SVG Version: 6.00 Build 0)  -->
<!DOCTYPE svg PUBLIC "-//W3C//DTD SVG 1.1//EN" "http://www.w3.org/Graphics/SVG/1.1/DTD/svg11.dtd">
<svg version="1.1" id="Layer_1" xmlns="http://www.w3.org/2000/svg" xmlns:xlink="http://www.w3.org/1999/xlink" x="0px" y="0px"
	 width="100px" height="100px" viewBox="0 0 100 100" enable-background="new 0 0 100 100" xml:space="preserve">
<path d="M81.7,20v-8.6h-56l32.9,35.4c2.1,2.2,2,5.7-0.1,7.9L26,88.6h55.7v-5.2c0-3.1,2.6-5.7,5.7-5.7c3.2,0,5.7,2.6,5.7,5.7v10.9
	c0,3.2-2.6,5.7-5.7,5.7H12.6c-2.3,0-4.4-1.4-5.3-3.5c-0.9-2.1-0.5-4.5,1.1-6.2l38.1-39.6L8.4,9.6c-1.6-1.7-2-4.1-1.1-6.2
	c0.9-2.1,3-3.4,5.2-3.4h74.8c3.2,0,5.7,2.6,5.7,5.7V20c0,3.2-2.6,5.7-5.7,5.7C84.3,25.8,81.7,23.2,81.7,20L81.7,20z M81.7,20"/>
</svg>
