<?xml version="1.0" encoding="utf-8"?>
<!-- Generator: Adobe Illustrator 18.0.0, SVG Export Plug-In . SVG Version: 6.00 Build 0)  -->
<!DOCTYPE svg PUBLIC "-//W3C//DTD SVG 1.1//EN" "http://www.w3.org/Graphics/SVG/1.1/DTD/svg11.dtd">
<svg version="1.1" xmlns="http://www.w3.org/2000/svg" xmlns:xlink="http://www.w3.org/1999/xlink" x="0px" y="0px" width="100px"
	 height="100px" viewBox="0 0 100 100" enable-background="new 0 0 100 100" xml:space="preserve">
<g id="services">
	<g id="massage">
	</g>
	<g id="degustation">
	</g>
	<g id="bus">
	</g>
	<g id="airplane">
	</g>
	<g id="insurance">
	</g>
</g>
<g id="activities">
	<g id="group-activities">
	</g>
	<g id="trek">
	</g>
	<g id="kitesurf">
	</g>
	<g id="paddleboard">
	</g>
	<g id="kayak">
	</g>
	<g id="basejump">
	</g>
	<g id="climb">
	</g>
	<g id="ferrata">
	</g>
	<g id="canyon">
	</g>
	<g id="bike">
	</g>
	<g id="paraglide">
	</g>
	<g id="windsurf">
	</g>
</g>
<g id="UI">
	<g id="hexagon_1_">
	</g>
	<g id="logo-minimal">
	</g>
	<g id="calendar">
	</g>
	<g id="pulse">
	</g>
	<g id="play">
	</g>
	<g id="plus">
	</g>
	<g id="minus">
	</g>
	<g id="Layer_42">
	</g>
	<g id="edit">
	</g>
	<g id="Social-Icons">
		<g id="facebook">
		</g>
		<g id="twitter">
		</g>
		<g id="instagram">
		</g>
	</g>
</g>
<g id="ALIGN">
</g>
<g id="TO_SORT" display="none">
</g>
<g id="VEHICLES">
</g>
<g id="HUMANS">
</g>
<g id="ESSENTIALS">
	<g id="row-04--socialMedia">
		<g id="YouTube">
		</g>
	</g>
	<g id="row-03--socialMedia">
	</g>
	<g id="row-02--personalInsurance">
		<g id="calendar_1_">
		</g>
		<g id="email">
		</g>
	</g>
	<g id="companylInsurance">
	</g>
	<g id="row-01">
		<g id="currency--EUR" display="none">
		</g>
		<g id="currency--CZK">
			<g id="CZK">
			</g>
		</g>
		<g id="profile">
		</g>
		<g id="phone_1_">
		</g>
		<g id="clock">
		</g>
		<g id="help">
		</g>
		<g id="shape--circle">
		</g>
		<g id="shape-egg">
		</g>
		<g id="shape-square">
		</g>
		<g id="shadow">
		</g>
		<g id="arrow">
		</g>
		<g id="close">
		</g>
		<g id="menu">
		</g>
		<g id="logo">
		</g>
	</g>
</g>
<g id="TEXT_LABELS">
</g>
<g id="FORMS">
</g>
<g id="Layer_57">
</g>
<g id="settings">
	<g>
		<path d="M61.8,61.9c-0.9,0.9-0.9,2.4,0,3.3l21.5,21.5l1.8-1.8l1.4-1.4L65.1,61.9C64.2,61,62.7,61,61.8,61.9L61.8,61.9z M61.8,61.9
			"/>
		<path d="M99.5,50v-4.6c0-1.7-1.3-3.2-3-3.5l-9.2-1.5c-0.9-3.5-2.3-6.9-4.1-10l5.4-7.6c1-1.4,0.8-3.3-0.4-4.6L85,14.9l-3.3-3.3
			c-1.2-1.2-3.1-1.4-4.6-0.4l-7.6,5.4c-3.1-1.8-6.4-3.2-10-4.1L58,3.3c-0.3-1.7-1.8-3-3.5-3h-9.3c-1.7,0.1-3.1,1.3-3.4,3l-1.5,9.2
			c-3.5,0.9-6.9,2.3-10,4.1l-7.6-5.4c-1.4-1-3.3-0.8-4.6,0.4L14.8,15l-3.3,3.3c-1.2,1.2-1.4,3.1-0.4,4.6l5.4,7.6
			c-1.9,3.1-3.3,6.6-4.2,10.2l-9.1,1.6c-1.7,0.3-3,1.8-3,3.5V55c0,1.7,1.3,3.2,3,3.5l9.3,1.6c0.9,3.5,2.4,6.9,4.2,9.9l-5.5,7.5
			c-1,1.4-0.8,3.3,0.4,4.6l6.5,6.5c1.2,1.2,3.1,1.4,4.6,0.4l7.7-5.5c3.1,1.8,6.4,3.2,10,4.1l1.6,9.1c0.3,1.7,1.8,3,3.5,3h9.3
			c1.7,0,3.2-1.3,3.5-3l1.6-9.3c0.8-0.2,1.6-0.4,2.4-0.7c0.2-0.1,0.4-0.1,0.6-0.2c0.6-0.2,1.3-0.5,1.9-0.7l0.4-0.2
			c0.7-0.3,1.5-0.7,2.2-1c0,0,0,0,0.1,0c0.7-0.4,1.5-0.8,2.1-1.2c0.4-0.3,0.9-0.5,1.3-0.8L59,70.6c-2.1-2.1-5.1-3.2-8.1-3
			c-5.1,0.3-10.3-1.4-14.2-5.3c-4.7-4.7-6.3-11.4-4.8-17.5c0.1-0.4,0.7-0.6,1-0.3l7.4,7.4c2.2,2.2,5.9,2.2,8.1,0l3.4-3.4
			c2.2-2.2,2.2-5.9,0-8.1L44,32.7c-0.3-0.3-0.2-0.8,0.2-1c6.3-2,13.6-0.5,18.6,4.5c4.1,4.1,5.8,9.6,5.2,15c-0.3,3.2,0.7,6.4,3,8.6
			l11.3,11.3c0.4-0.6,0.7-1.1,1.1-1.7c0.4-0.7,0.7-1.3,1.1-2l0.3-0.6c0.2-0.5,0.4-0.9,0.6-1.4c0.2-0.4,0.3-0.7,0.5-1.1
			c0.1-0.2,0.2-0.5,0.3-0.8c0.2-0.5,0.4-1.1,0.6-1.6c0.2-0.7,0.4-1.4,0.6-2.2l9.2-1.6c1.7-0.3,3-1.8,3-3.5V50z M99.5,50"/>
	</g>
</g>
</svg>
