<?xml version="1.0" encoding="utf-8"?>
<!-- Generator: Adobe Illustrator 18.0.0, SVG Export Plug-In . SVG Version: 6.00 Build 0)  -->
<!DOCTYPE svg PUBLIC "-//W3C//DTD SVG 1.1//EN" "http://www.w3.org/Graphics/SVG/1.1/DTD/svg11.dtd">
<svg version="1.1" id="Layer_1" xmlns="http://www.w3.org/2000/svg" xmlns:xlink="http://www.w3.org/1999/xlink" x="0px" y="0px"
	 width="100px" height="100px" viewBox="0 0 100 100" enable-background="new 0 0 100 100" xml:space="preserve">
<path d="M51.6,0c-0.3,0-0.6,0-0.9,0c-0.1,0-0.2,0-0.2,0c-0.1,0-0.3,0-0.4,0C22.4,0,0,22.4,0,50c0,27.6,22.4,50,50,50
	c27.6,0,50-22.4,50-50C100,23,78.4,0.9,51.6,0L51.6,0z M50.8,92.7c0,0-0.1,0-0.1,0c0,0-0.1,0-0.1,0H50.8z M46.4,91.7
	c-5-2.2-9.5-8.3-12.5-16.6c3.9-1,8.2-1.6,12.5-1.8V91.7z M46.4,66c-5.1,0.3-10,1-14.6,2.2c-1.1-4.5-1.8-9.4-2-14.5h16.6V66z
	 M29.8,46.4c0.2-5.7,1.1-11.1,2.3-15.9c4.5,1.1,9.3,1.8,14.2,2v13.9H29.8z M46.4,25.2c-4.1-0.2-8.2-0.8-12-1.7
	c3-7.6,7.2-13.1,12-15.2V25.2z M53.6,32.5c5.4-0.2,10.6-0.9,15.6-2.1c1.3,4.9,2.1,10.3,2.3,15.9H53.6V32.5z M53.6,25.3V7.7
	c5.3,1.6,10,7.5,13.3,15.8C62.8,24.5,58.3,25.1,53.6,25.3L53.6,25.3z M69,11.8c3.8,1.9,7.3,4.3,10.3,7.2c-1.7,0.9-3.5,1.7-5.4,2.4
	C72.5,17.8,70.9,14.6,69,11.8L69,11.8z M27.4,21.4c-2.2-0.8-4.3-1.8-6.2-2.8c3.5-3.2,7.4-5.8,11.8-7.7
	C30.8,13.9,28.9,17.4,27.4,21.4L27.4,21.4z M25.1,28.3c-1.5,5.5-2.4,11.6-2.6,18.1H7.4c0.7-8.4,3.8-16,8.7-22.3
	C18.8,25.7,21.9,27.1,25.1,28.3L25.1,28.3z M22.5,53.6c0.2,5.9,1,11.6,2.3,16.7c-3.4,1.3-6.6,2.8-9.5,4.6
	c-4.4-6.1-7.2-13.4-7.9-21.3L22.5,53.6z M26.9,77.3c1.6,4.5,3.7,8.6,6.1,11.9c-4.8-2.1-9.1-5-12.8-8.7
	C22.2,79.3,24.5,78.2,26.9,77.3L26.9,77.3z M53.6,92.2v-19c4.8,0.2,9.5,0.9,13.8,1.9C64.2,84.1,59.2,90.5,53.6,92.2L53.6,92.2z
	 M53.6,65.9V53.6h17.9c-0.2,5.1-0.9,10-2,14.5C64.5,66.9,59.2,66.1,53.6,65.9L53.6,65.9z M78.8,53.6h13.8
	c-0.6,7.7-3.3,14.8-7.5,20.7c-2.6-1.6-5.5-2.9-8.6-4.1C77.8,65.2,78.6,59.6,78.8,53.6L78.8,53.6z M78.8,46.4
	c-0.2-6.5-1.2-12.6-2.6-18.1c2.9-1.1,5.6-2.3,8.1-3.7c4.6,6.2,7.6,13.7,8.3,21.8H78.8z M69,88.3c2.1-3.2,3.9-6.9,5.4-11
	c2.1,0.8,4.1,1.7,5.9,2.8C77,83.4,73.2,86.2,69,88.3L69,88.3z M69,88.3"/>
</svg>
