<?xml version="1.0" encoding="utf-8"?>
<!-- Generator: Adobe Illustrator 18.0.0, SVG Export Plug-In . SVG Version: 6.00 Build 0)  -->
<!DOCTYPE svg PUBLIC "-//W3C//DTD SVG 1.1//EN" "http://www.w3.org/Graphics/SVG/1.1/DTD/svg11.dtd">
<svg version="1.1" id="Layer_1" xmlns="http://www.w3.org/2000/svg" xmlns:xlink="http://www.w3.org/1999/xlink" x="0px" y="0px"
	 width="100px" height="100px" viewBox="0 0 100 100" enable-background="new 0 0 100 100" xml:space="preserve">
<path d="M97.8,68.5c-0.2-0.9-0.5-1.6-1.1-2.2c-1.3-1.3-2.9-1.6-4.7-0.8c-4.8,2.2-9.7,3.3-14.9,3.3c-6.4,0-12.4-1.6-17.8-4.8
	c-5.4-3.2-9.7-7.5-12.9-12.9c-3.2-5.4-4.8-11.4-4.8-17.8c0-5,1-9.7,3-14.2c2-4.5,4.8-8.4,8.6-11.8c1.4-1.3,1.8-2.9,1-4.7
	c-0.7-1.8-2.1-2.6-4-2.5c-6.6,0.3-12.9,1.7-18.9,4.5c-6,2.7-11.1,6.3-15.3,10.7c-4.3,4.4-7.7,9.7-10.2,15.7C3.3,37,2,43.4,2,50
	c0,6.8,1.3,13.2,4,19.4c2.7,6.2,6.2,11.5,10.7,16c4.5,4.5,9.8,8,16,10.7c6.2,2.7,12.6,4,19.4,4c9.7,0,18.7-2.6,26.9-7.9
	c8.2-5.3,14.4-12.3,18.5-21.1C97.8,70.2,97.9,69.4,97.8,68.5L97.8,68.5z M69.9,87.7c-5.6,2.7-11.6,4-17.8,4c-5.6,0-11-1.1-16.2-3.3
	c-5.1-2.2-9.6-5.2-13.3-8.9c-3.7-3.7-6.7-8.1-8.9-13.3C11.5,61,10.4,55.6,10.4,50c0-9.3,2.8-17.7,8.3-25
	c5.5-7.3,12.7-12.3,21.4-14.9c-4.5,7.2-6.8,14.9-6.8,23.3c0,7.9,2,15.2,5.9,22c3.9,6.7,9.2,12,16,16c6.7,3.9,14,5.9,22,5.9
	c2.4,0,4.8-0.2,7.2-0.6C80.3,81.3,75.5,85,69.9,87.7L69.9,87.7z M69.9,87.7"/>
</svg>
