<?xml version="1.0" encoding="utf-8"?>
<!-- Generator: Adobe Illustrator 18.0.0, SVG Export Plug-In . SVG Version: 6.00 Build 0)  -->
<!DOCTYPE svg PUBLIC "-//W3C//DTD SVG 1.1//EN" "http://www.w3.org/Graphics/SVG/1.1/DTD/svg11.dtd">
<svg version="1.1" id="Layer_1" xmlns="http://www.w3.org/2000/svg" xmlns:xlink="http://www.w3.org/1999/xlink" x="0px" y="0px"
	 width="100px" height="100px" viewBox="0 0 100 100" enable-background="new 0 0 100 100" xml:space="preserve">
<path d="M48.9,54h0.7c6.1-0.1,11-2.2,14.6-6.3c8-9,6.6-24.4,6.5-25.9c-0.5-11-5.7-16.3-10-18.8c-3.2-1.8-7-2.8-11.1-2.9h-0.4
	C46.9,0.2,42.4,0.5,38,3c-4.3,2.5-9.7,7.7-10.2,18.9c-0.1,1.5-1.5,16.9,6.5,25.9C38,51.8,42.9,53.9,48.9,54L48.9,54z M33.4,22.4
	c0-0.1,0-0.1,0-0.2C34.1,7.4,44.6,5.8,49.1,5.8h0.2C55,5.9,64.5,8.2,65.1,22.2c0,0.1,0,0.1,0,0.2c0,0.1,1.5,14.2-5.1,21.6
	c-2.6,2.9-6.1,4.4-10.7,4.4h-0.2c-4.6,0-8.1-1.5-10.6-4.4C32,36.6,33.4,22.5,33.4,22.4L33.4,22.4z M33.4,22.4"/>
<path d="M91.8,79.6L91.8,79.6c0-0.2,0-0.4,0-0.6c-0.1-4.1-0.4-13.7-9.4-16.8c-0.1,0-0.1,0-0.2-0.1c-9.3-2.4-17.1-7.8-17.2-7.8
	c-1.3-0.9-3-0.6-3.9,0.7c-0.9,1.3-0.6,3,0.7,3.9c0.4,0.2,8.6,6,18.9,8.6c4.8,1.7,5.4,6.9,5.5,11.6c0,0.2,0,0.4,0,0.5
	c0,1.9-0.1,4.7-0.4,6.4c-3.4,1.9-16.5,8.5-36.5,8.5c-19.9,0-33.2-6.6-36.5-8.5c-0.3-1.7-0.5-4.5-0.4-6.4c0-0.2,0-0.3,0-0.5
	c0.1-4.7,0.7-9.9,5.5-11.6c10.3-2.7,18.6-8.4,18.9-8.6c1.3-0.9,1.6-2.6,0.7-3.9c-0.9-1.3-2.6-1.6-3.9-0.7c-0.1,0.1-7.8,5.4-17.2,7.8
	c-0.1,0-0.1,0-0.2,0.1c-9,3.1-9.3,12.7-9.4,16.8c0,0.2,0,0.4,0,0.5v0.1c0,1.1,0,6.6,1.1,9.4c0.2,0.5,0.6,1,1.1,1.3
	c0.6,0.4,15.5,9.9,40.4,9.9s39.8-9.5,40.4-9.9c0.5-0.3,0.9-0.8,1.1-1.3C91.9,86.2,91.8,80.7,91.8,79.6L91.8,79.6z M91.8,79.6"/>
<path display="none" d="M57.8,90.8l-5.9-20.4c1.8,0,3.1-1.7,2.7-3.5l-1.2-4.8C53.1,60.9,52,60,50.7,60h-2.7c-1.3,0-2.5,0.9-2.8,2.2
	L44,67c-0.4,1.8,0.9,3.5,2.7,3.5l-5.9,20.3c0,0,4,1.2,8.5,1.2S57.8,90.8,57.8,90.8z"/>
<g>
	<path d="M38.5,79.8c0,2.6-0.6,4.6-1.9,6s-3.1,2.1-5.5,2.1s-4.3-0.7-5.5-2.1s-1.9-3.4-1.9-6c0-2.6,0.6-4.6,1.9-6
		c1.3-1.4,3.1-2.1,5.6-2.1c2.4,0,4.3,0.7,5.5,2.1C37.8,75.2,38.5,77.2,38.5,79.8z M27,79.8c0,1.8,0.3,3.1,1,4s1.7,1.3,3,1.3
		c2.7,0,4-1.8,4-5.3c0-3.5-1.3-5.3-4-5.3c-1.3,0-2.3,0.4-3,1.3C27.3,76.7,27,78,27,79.8z"/>
	<path d="M49.2,83.3c0,1.4-0.5,2.5-1.5,3.4c-1,0.8-2.4,1.2-4.3,1.2c-1.7,0-3.2-0.3-4.4-0.9v-3.1c1.1,0.5,2,0.8,2.7,1
		c0.7,0.2,1.4,0.3,2,0.3c0.7,0,1.3-0.1,1.7-0.4c0.4-0.3,0.6-0.7,0.6-1.2c0-0.3-0.1-0.6-0.3-0.8c-0.2-0.2-0.4-0.5-0.8-0.7
		s-1-0.6-2-1.1c-1-0.5-1.7-0.9-2.2-1.3c-0.5-0.4-0.9-0.9-1.1-1.5c-0.3-0.6-0.4-1.2-0.4-1.9c0-1.4,0.5-2.5,1.4-3.3
		c0.9-0.8,2.2-1.2,3.9-1.2c0.8,0,1.6,0.1,2.3,0.3s1.5,0.5,2.3,0.8l-1.1,2.6c-0.8-0.3-1.5-0.6-2.1-0.7c-0.5-0.1-1.1-0.2-1.6-0.2
		c-0.6,0-1.1,0.1-1.5,0.4c-0.3,0.3-0.5,0.7-0.5,1.1c0,0.3,0.1,0.5,0.2,0.8c0.1,0.2,0.4,0.4,0.6,0.6c0.3,0.2,1,0.6,2.1,1.1
		c1.5,0.7,2.5,1.4,3,2.1C49,81.4,49.2,82.3,49.2,83.3z"/>
	<path d="M60.6,71.9H64l-5.3,15.7H55l-5.3-15.7H53l3,9.3c0.2,0.6,0.3,1.2,0.5,1.9c0.2,0.7,0.3,1.2,0.3,1.5c0.1-0.7,0.3-1.8,0.8-3.5
		L60.6,71.9z"/>
	<path d="M70.4,74.5c-1.3,0-2.2,0.5-2.9,1.4s-1,2.3-1,3.9c0,3.5,1.3,5.3,3.9,5.3c1.1,0,2.4-0.3,4-0.8V87c-1.3,0.5-2.7,0.8-4.3,0.8
		c-2.3,0-4-0.7-5.2-2.1c-1.2-1.4-1.8-3.4-1.8-6c0-1.6,0.3-3.1,0.9-4.3s1.4-2.2,2.6-2.8c1.1-0.7,2.4-1,3.9-1c1.5,0,3.1,0.4,4.6,1.1
		l-1.1,2.7c-0.6-0.3-1.2-0.5-1.8-0.7C71.6,74.6,71,74.5,70.4,74.5z M74.9,67.2v0.3c-0.6,0.6-1.2,1.2-1.7,1.8
		c-0.5,0.6-0.9,1.1-1.1,1.4h-3.8c-0.2-0.3-0.5-0.7-0.9-1.2s-1-1.1-1.9-2v-0.3h2.2c1.1,0.7,1.9,1.3,2.5,1.9c0.6-0.6,1.4-1.3,2.5-1.9
		H74.9z"/>
</g>
</svg>
