<svg xmlns="http://www.w3.org/2000/svg" style="display: none;">



<!-- row-01 -->  
    <symbol id="logo" viewBox="0 0 100 60">
        <title>OUTSIDER WTF magazine logo</title> 
        <desc>Semi-serious magazine</desc>

        <path fill-rule="evenodd" clip-rule="evenodd" d="M58.5,2c2.1,1.1,2.8,3.4,3.1,4.8c0.6-2.3-0.4-4.7-2.6-6c-2.7-1.6-6.2-0.7-7.8,1.8
            c-1.6,2.6-0.8,5.9,1.9,7.5c2.4,1.4,5.4,0.9,7.1-1c0.4-1.5,0.6-4.6-2.7-6c-2.9-1.2-4,0.7-4.3,1.2c-0.4,0.7-0.9,2.2,1.3,4
            c1.2,1,2.6,0.1,3.4-1c0.5-0.8-0.3-1.5-1.3-1.8C55.1,5.2,56,7.4,56,7.4s-2.4,0-1.5-1.9C54.8,4.7,55.3,4,57,4.2
            c0.9,0.1,2.9,1.6,1.9,4.1c-0.7,1.7-3.4,1.8-5.3,0.4c-1.5-1.1-2.5-3.5-1.3-5.3C53,2.3,55.5,0.5,58.5,2z"/>
        <path fill-rule="evenodd" clip-rule="evenodd" d="M60.5,12.6c-0.1-0.6-0.4-0.7-1.1-0.9c-0.9-0.3-2.1,0.1-3.3,0.1l0,0v0l0,0l0,0v0
            l0,0c-1.1,0-2.4-0.4-3.3-0.1c-0.7,0.2-1,0.3-1.1,0.9c-0.1,0.6-0.1,6.2-0.1,6.2s0.7,0.2,2.2,0.4c0,0,0,0,0,0.1v7.7H56h0h2.3v-7.7
            c0-0.1,0-0.1,0-0.1c1.5-0.1,2.2-0.4,2.2-0.4S60.6,13.1,60.5,12.6z"/>
        <g>
            <path d="M12,23.7c0,1.8-0.7,3.3-3.3,3.3H3.3C0.7,27,0,25.4,0,23.7V6.9c0-1.8,1-3,3.1-3h5.7c2.2,0,3.1,1.2,3.1,3V23.7z M5.1,7.9
                c-0.3,0-0.4,0.2-0.4,0.4v14.1c0,0.4,0.1,0.5,0.4,0.5h1.8c0.4,0,0.4-0.1,0.4-0.5V8.4c0-0.3-0.1-0.4-0.4-0.4H5.1z"/>
            <path d="M17.5,27c-2.6,0-3.6-1-3.6-3.6V3.9h4.7v18.5c0,0.3,0.1,0.5,0.4,0.5h1.6c0.4,0,0.4-0.2,0.4-0.5V3.9h4.7v19.5
                c0,2.5-1,3.6-3.6,3.6H17.5z"/>
            <path d="M38,3.9v4.3h-3.1V27h-4.7V8.2h-3.1V3.9H38z"/>
            <path d="M39.5,27l0-4.3h5c0.4,0,0.5-0.1,0.5-0.5V18c0-0.6-0.2-0.7-0.9-0.7h-2.4c-1.4,0-2.6-0.3-2.6-2.6V6.9c0-1.8,1-3,3.1-3h7.2
                l0,4.3h-5.2c-0.4,0-0.6,0.2-0.6,0.5v4.2c0,0.5,0.2,0.6,0.7,0.6h2.9c1.5,0,2.3,0.6,2.3,2.4v7.6c0,2.5-0.9,3.5-3.5,3.5H39.5z"/>
            <rect x="53.7" y="19.1" display="none" width="4.6" height="7.9"/>
            <path d="M74.5,23.4c0,2.5-1,3.6-3.6,3.6h-8.2V3.9h9c1.8,0,2.7,1.1,2.7,2.8V23.4z M67.3,7.9v15h2.2c0.4,0,0.4-0.1,0.4-0.5V8.4
                c0-0.3-0.1-0.4-0.4-0.4H67.3z"/>
            <path d="M76.4,3.9h9.8v4.3h-5v5.5H85v4h-3.8v5H86l0,4.3h-9.6V3.9z"/>
            <path d="M99.6,17.6c0,1-0.7,2-2.1,2L100,27h-4.8L93,19.6h-0.6V27h-4.6V3.9h8.8c2.2,0,3.1,1.2,3.1,3V17.6z M92.4,7.9v8h2.3
                c0.4,0,0.4-0.1,0.4-0.5v-7c0-0.3-0.1-0.5-0.4-0.5H92.4z"/>
        </g>
    </symbol>

    <symbol id="logo--simplified" viewBox="0 0 100 100">
        <path fill-rule="evenodd" clip-rule="evenodd" d="M58.5,2c2.1,1.1,2.8,3.4,3.1,4.8c0.6-2.3-0.4-4.7-2.6-6c-2.7-1.6-6.2-0.7-7.8,1.8
            c-1.6,2.6-0.8,5.9,1.9,7.5c2.4,1.4,5.4,0.9,7.1-1c0.4-1.5,0.6-4.6-2.7-6c-2.9-1.2-4,0.7-4.3,1.2c-0.4,0.7-0.9,2.2,1.3,4
            c1.2,1,2.6,0.1,3.4-1c0.5-0.8-0.3-1.5-1.3-1.8C55.1,5.2,56,7.4,56,7.4s-2.4,0-1.5-1.9C54.8,4.7,55.3,4,57,4.2
            c0.9,0.1,2.9,1.6,1.9,4.1c-0.7,1.7-3.4,1.8-5.3,0.4c-1.5-1.1-2.5-3.5-1.3-5.3C53,2.3,55.5,0.5,58.5,2z"/>
        <path fill-rule="evenodd" clip-rule="evenodd" d="M60.5,12.6c-0.1-0.6-0.4-0.7-1.1-0.9c-0.9-0.3-2.1,0.1-3.3,0.1l0,0v0l0,0l0,0v0
            l0,0c-1.1,0-2.4-0.4-3.3-0.1c-0.7,0.2-1,0.3-1.1,0.9c-0.1,0.6-0.1,6.2-0.1,6.2s0.7,0.2,2.2,0.4c0,0,0,0,0,0.1v7.7H56h0h2.3v-7.7
            c0-0.1,0-0.1,0-0.1c1.5-0.1,2.2-0.4,2.2-0.4S60.6,13.1,60.5,12.6z"/>
    </symbol>


    <symbol id="outsider" viewBox="0 0 100 100">
        <path id="outsider--spiral" fill-rule="evenodd" clip-rule="evenodd" d="M58.5,2c2.1,1.1,2.8,3.4,3.1,4.8c0.6-2.3-0.4-4.7-2.6-6c-2.7-1.6-6.2-0.7-7.8,1.8
            c-1.6,2.6-0.8,5.9,1.9,7.5c2.4,1.4,5.4,0.9,7.1-1c0.4-1.5,0.6-4.6-2.7-6c-2.9-1.2-4,0.7-4.3,1.2c-0.4,0.7-0.9,2.2,1.3,4
            c1.2,1,2.6,0.1,3.4-1c0.5-0.8-0.3-1.5-1.3-1.8C55.1,5.2,56,7.4,56,7.4s-2.4,0-1.5-1.9C54.8,4.7,55.3,4,57,4.2
            c0.9,0.1,2.9,1.6,1.9,4.1c-0.7,1.7-3.4,1.8-5.3,0.4c-1.5-1.1-2.5-3.5-1.3-5.3C53,2.3,55.5,0.5,58.5,2z"/>
        <path id="outsider--body" fill-rule="evenodd" clip-rule="evenodd" d="M60.5,12.6c-0.1-0.6-0.4-0.7-1.1-0.9c-0.9-0.3-2.1,0.1-3.3,0.1l0,0v0l0,0l0,0v0
            l0,0c-1.1,0-2.4-0.4-3.3-0.1c-0.7,0.2-1,0.3-1.1,0.9c-0.1,0.6-0.1,6.2-0.1,6.2s0.7,0.2,2.2,0.4c0,0,0,0,0,0.1v7.7H56h0h2.3v-7.7
            c0-0.1,0-0.1,0-0.1c1.5-0.1,2.2-0.4,2.2-0.4S60.6,13.1,60.5,12.6z"/>
    </symbol>


    <symbol id="logo--avatar" viewBox="0 0 100 100">
        <title>DIRECT pojišťovna</title> 
        <desc>Logo pojišťovny DIRECT - zjednodušené</desc>

        <path d="M71.4,19.6c18.8,9.4,25.2,30,27,42.4c5.3-19.9-3.4-41.7-22.5-53C52.3-4.8,21.5,2.7,7.2,25.2
        S0.5,77.4,24.1,91.3c21,12,47.3,7.9,63.1-8.6c3.4-13.5,5.6-40.6-24-53.3c-25.5-10.9-35.7,6-38.3,10.5c-3.8,6-7.9,19.5,11.3,35.7
        c10.9,9,23.3,1.1,29.7-9c4.1-6.8-2.6-13.5-11.3-15.4C41.8,48.5,49.7,68,49.7,68s-21-0.4-13.5-16.9c3-6.8,7.1-13.5,22.5-11.6
        c8.3,1.1,25.9,13.9,16.5,36.1c-6.4,14.6-30,15.4-46.6,3.8C15.1,69.5,6.8,48.5,17,32.7C23.4,22.2,45.5,6.5,71.4,19.6z"/>
    </symbol>


<!-- 3-7 -->

    <symbol id="ico_shape--badge" viewBox="0 0 100 100">
        <polygon points="91.5,70.6 3,67 0,33.4 100,29.4"/>
    </symbol>


    <symbol id="ico_shape--circle" viewBox="0 0 100 100">
        <circle cx="50" cy="50" r="50"/>
    </symbol>
   
    <symbol id="ico_shape--square" viewBox="0 0 100 100">
        <path d="M89.3,100L8.5,96.4c-3.2,0-5.8-2.6-5.8-5.8l2.5-79.7C5.1,7.6,7.8,5,11,5l80.5-5c3.2,0,5.8,2.6,5.8,5.8l-2.2,88.3
                C95.2,97.4,92.6,100,89.3,100z"/>
    </symbol>
          
    <symbol id="ico_shape--egg" viewBox="0 0 100 100">
          <path fill="#BED600" d="M88.3,75.2c-10.2,21.6-36,30.9-57.6,20.7s-30.9-36-20.7-57.6S53-7.8,74.7,2.4S98.5,53.5,88.3,75.2z"/>
    </symbol>


    <symbol id="ico_help" viewBox="0 0 100 100">
        <path d="M59.5,68.8H40.7c0-18.8,10-25,16.9-28.7c2.5-1.2,4.4-2.5,5.6-3.7c3.1-3.1,1.9-7.5,1.3-8.8c-1.9-4.4-6.2-8.8-14.4-8.8
            c-13.1,0-15.6,11.9-15.6,14.4l-18.7-2.5C17,20,26.3,0,50.1,0C64.4,0,77,8.2,82,20c4.4,10.6,2.5,21.9-5,29.4
            c-3.1,3.1-6.9,5-10,6.9C61.3,59.4,59.5,62.5,59.5,68.8L59.5,68.8z M59.5,68.8"/>
        <path d="M62.6,87.5c0,6.9-5.6,12.5-12.5,12.5c-6.9,0-12.5-5.6-12.5-12.5c0-6.9,5.6-12.5,12.5-12.5C57,75,62.6,80.6,62.6,87.5
            L62.6,87.5z M62.6,87.5"/>
    </symbol>


    <symbol id="ico_clock" viewBox="0 0 100 100">
            <path d="M100,50c0,27.6-22.4,50-50,50C22.4,100,0,77.6,0,50C0,22.4,22.4,0,50,0C77.6,0,100,22.4,100,50L100,50z M87.5,50
                c0-20.7-16.8-37.5-37.5-37.5c-20.7,0-37.5,16.8-37.5,37.5c0,20.7,16.8,37.5,37.5,37.5C70.7,87.5,87.5,70.7,87.5,50L87.5,50z
                 M68.8,50H50V31.2c0-3.5-2.8-6.3-6.3-6.3c-3.5,0-6.2,2.8-6.2,6.3v25c0,3.5,2.8,6.3,6.2,6.3h25c3.5,0,6.2-2.8,6.2-6.3
                C75,52.8,72.2,50,68.8,50L68.8,50z M68.8,50"/>
    </symbol>

    <symbol id="ico_phone" viewBox="0 0 100 100">
            <path d="M85.3,90.5L85.3,90.5L72.2,68.4c-1-1.7-3.2-2.2-4.9-1.2l-7.1,5.7c-3.4,1.5-6.5-1.9-11.9-9.3L37.2,44.8
                c-2.2-4.8-3.9-9.7-0.6-12l8.1-4v0c1.8-1.1,2.2-3.3,1.2-4.9v0L32.9,1.7c-1-1.7-3.2-2.2-4.8-1.2l-7.3,5.4
                c-4.3,3.5-15.1,20.3,6.3,57.4c22.2,38.5,43.3,38.3,48.7,35.8l8.3-3.7v0C85.8,94.3,86.2,92.1,85.3,90.5z"/>
    </symbol>

    <symbol id="ico_currency--CZK" viewBox="0 0 100 100">
            <path d="M26.2,33H34v15.4h0.2c0.8-1.3,1.6-2.6,2.4-3.8L44.4,33h9.7L42.6,47.9l12.2,20h-9.2L37,52.8l-3,3.7v11.4h-7.8V33z"/>
            <path d="M73.8,67.3c-1.4,0.6-4,1.1-7,1.1c-8.2,0-13.4-5-13.4-12.9c0-7.4,5.1-13.4,14.5-13.4c2.1,0,4.3,0.4,6,1l-1.2,5.8
                c-0.9-0.4-2.3-0.8-4.4-0.8c-4.1,0-6.8,2.9-6.8,7.1c0,4.7,3.1,7.1,6.9,7.1c1.9,0,3.3-0.3,4.5-0.8L73.8,67.3z M62.9,39.4l-5.1-7.9
                h5.1l2.6,4.5h0.1l2.6-4.5h5.2l-5.2,7.9H62.9z"/>
            <path d="M50,0C22.4,0,0,22.4,0,50c0,27.6,22.4,50,50,50c27.6,0,50-22.4,50-50C100,22.4,77.6,0,50,0z M50,92.5
                c-23.5,0-42.5-19-42.5-42.5c0-23.5,19-42.5,42.5-42.5c23.5,0,42.5,19,42.5,42.5C92.5,73.5,73.5,92.5,50,92.5z"/>
    </symbol>

    <symbol id="ico_currency--EUR" viewBox="0 0 100 100">
                <path d="M50,0C22.4,0,0,22.4,0,50c0,27.6,22.4,50,50,50c27.6,0,50-22.4,50-50C100,22.4,77.6,0,50,0L50,0z M50,92.6
                    C26.5,92.6,7.4,73.5,7.4,50C7.4,26.5,26.5,7.4,50,7.4c23.5,0,42.6,19.1,42.6,42.6C92.6,73.5,73.5,92.6,50,92.6L50,92.6z
                     M50,92.6"/>
                <path d="M50,11.7c-21.1,0-38.3,17.2-38.3,38.3c0,21.1,17.2,38.3,38.3,38.3c21.1,0,38.3-17.2,38.3-38.3
                    C88.3,28.9,71.1,11.7,50,11.7L50,11.7z M63.8,35.6c-2.5-2-5.4-3-8.6-3c-2.5,0-4.7,0.8-6.5,2.4c-1.9,1.6-3.2,3.7-4,6.4h14.4v6.3
                    H43.7c-0.1,1.3-0.1,2.2-0.1,2.8c0,0.6,0,1.3,0.1,2h15.4v6.4H44.7c1.7,5.7,5,8.5,10.1,8.5c3.2,0,6.2-1,9.1-3v8.3
                    c-2.6,1.6-6.1,2.4-10.4,2.4c-5.1,0-9.2-1.4-12.4-4.2c-3.2-2.8-5.3-6.8-6.3-12h-4.1v-6.4h3.2c-0.1-0.6-0.1-1.2-0.1-2
                    c0-0.4,0-1.3,0.1-2.8h-3.3v-6.3h4.3c1.2-5.2,3.6-9.2,7-12.1c3.5-2.9,7.7-4.3,12.8-4.3c3.8,0,6.8,0.6,9.1,1.9L63.8,35.6
                    L63.8,35.6z M63.8,35.6"/>
    </symbol>
<!-- / row-01 -->  



<!-- UI Icons --> 
    <symbol id="icoUI--check" viewBox="0 0 100 100">
        <path d="M96.6,9.1c-3.9-3.2-9.8-2.6-13,1.4l-25.8,32L36.5,68.9L16.6,41.8c-3-4.1-8.8-5-12.9-2h0c-4.1,3-5,8.8-2,12.9l26.7,36.6
            c1.8,2.5,4.7,3.8,7.7,3.8c2.8,0.1,5.5-1.1,7.4-3.4l27.9-34.6L98,22C101.2,18.1,100.5,12.2,96.6,9.1z"/>
    </symbol>



    <symbol id="icoUI--key" viewBox="0 0 100 100">
        <path d="M72.1,82.8c-1.4,0-2.5-1.1-2.5-2.5c0-1.4,1.1-2.5,2.5-2.5h5.5v-6.1c0-2.8-2.1-5.1-4.9-5.1H60.1v27.3h12.7
            c2.8,0,4.9-2.3,4.9-5.1v-6.1H72.1z M72.1,82.8"/>
        <path d="M55,39.7c0-0.1,0.2-0.2,0.2-0.3h2.7c10.9,0,19.7-8.8,19.7-19.7C77.6,8.8,68.8,0,57.9,0H42.1C31.2,0,22.4,8.8,22.4,19.7
            c0,10.9,8.8,19.7,19.7,19.7h3c0,0.1-0.2,0.2-0.2,0.3v55.2c0,2.8,2.3,5.1,5.1,5.1c2.8,0,5.1-2.3,5.1-5.1V39.7z M32.5,19.7
            c0-5.3,4.3-9.6,9.6-9.6h15.8c5.3,0,9.6,4.3,9.6,9.6c0,5.3-4.3,9.6-9.6,9.6H42.1C36.8,29.3,32.5,25,32.5,19.7L32.5,19.7z M32.5,19.7
            "/>
    </symbol>

    <symbol id="icoUI--link" viewBox="0 0 100 100">
        <path d="M36.6,79.3l-5.1,5c-4.4,4.3-11.5,4.4-15.9,0c-2.1-2.1-3.3-4.9-3.3-7.8c0-3,1.2-5.7,3.3-7.8l18.6-18.5
            c3.9-3.8,11.1-9.5,16.4-4.2c2.4,2.4,6.4,2.4,8.8,0c2.4-2.4,2.4-6.4,0-8.8c-9-8.9-22.3-7.3-33.9,4.2L6.9,59.9C2.5,64.4,0,70.3,0,76.5
            c0,6.3,2.5,12.2,6.9,16.6c4.6,4.6,10.6,6.8,16.7,6.8c6,0,12.1-2.3,16.7-6.8l5.1-5c2.4-2.4,2.4-6.3,0-8.8C43,76.9,39,76.9,36.6,79.3
            L36.6,79.3z M93.1,7.6C83.4-2,69.9-2.6,61,6.3l-6.3,6.3c-2.4,2.4-2.4,6.3,0,8.8c2.4,2.4,6.3,2.4,8.8,0l6.3-6.3
            c4.6-4.6,10.7-2.7,14.7,1.2c2.1,2.1,3.3,4.9,3.3,7.8c0,3-1.2,5.7-3.3,7.8L64.5,51.7c-9.1,9-13.3,4.8-15.2,3c-2.4-2.4-6.4-2.4-8.8,0
            c-2.4,2.4-2.4,6.4,0,8.8c4.2,4.1,8.9,6.2,13.9,6.2c6.1,0,12.6-3.1,18.7-9.2l19.9-19.7c4.5-4.4,6.9-10.3,6.9-16.6
            C100,17.9,97.5,12,93.1,7.6L93.1,7.6z M93.1,7.6"/>
    </symbol>

    <symbol id="icoUI--magnifier" viewBox="0 0 100 100">
        <path d="M40.7,38c-0.5,0-1.1-0.1-1.6-0.3c-2.1-0.9-3.1-3.3-2.2-5.5c5.7-13.4,21.1-19.6,34.5-14c2.1,0.9,3.1,3.3,2.2,5.5
            c-0.9,2.1-3.3,3.1-5.5,2.2c-9.1-3.9-19.7,0.4-23.5,9.5C43.9,37.1,42.4,38,40.7,38L40.7,38z M40.7,38"/>
        <path d="M87.9,69.1c15.8-15.8,15.8-41.5,0-57.2c-15.8-15.8-41.5-15.8-57.2,0c-13.4,13.4-15.4,33.3-6.1,48.8c0,0,0.7,1.1-0.2,2
            L3.7,83.3c-4.1,4.1-5.1,9.9-1.4,13.5l0.6,0.6c3.6,3.6,9.4,2.7,13.5-1.4L37,75.4c0.9-0.9,2.1-0.3,2.1-0.3
            C54.6,84.5,74.5,82.5,87.9,69.1L87.9,69.1z M38.2,61.6c-11.7-11.7-11.7-30.6,0-42.3c11.7-11.7,30.6-11.7,42.3,0
            c11.7,11.7,11.7,30.6,0,42.3C68.8,73.3,49.8,73.3,38.2,61.6L38.2,61.6z M38.2,61.6"/>
    </symbol>

    <symbol id="icoUI--suma" viewBox="0 0 100 100">
        <path d="M81.7,20v-8.6h-56l32.9,35.4c2.1,2.2,2,5.7-0.1,7.9L26,88.6h55.7v-5.2c0-3.1,2.6-5.7,5.7-5.7c3.2,0,5.7,2.6,5.7,5.7v10.9
        c0,3.2-2.6,5.7-5.7,5.7H12.6c-2.3,0-4.4-1.4-5.3-3.5c-0.9-2.1-0.5-4.5,1.1-6.2l38.1-39.6L8.4,9.6c-1.6-1.7-2-4.1-1.1-6.2
        c0.9-2.1,3-3.4,5.2-3.4h74.8c3.2,0,5.7,2.6,5.7,5.7V20c0,3.2-2.6,5.7-5.7,5.7C84.3,25.8,81.7,23.2,81.7,20L81.7,20z M81.7,20"/>
    </symbol>
<!-- UI Icons --> 





<!-- PERSON TYPES (AVATARS) -->  
    <symbol id="ico_personType--person" viewBox="0 0 100 100">
        <path d="M48.9,54h0.7c6.1-0.1,11-2.2,14.6-6.3c8-9,6.6-24.4,6.5-25.9c-0.5-11-5.7-16.3-10-18.8c-3.2-1.8-7-2.8-11.1-2.9h-0.4
            C46.9,0.2,42.4,0.5,38,3c-4.3,2.5-9.7,7.7-10.2,18.9c-0.1,1.5-1.5,16.9,6.5,25.9C38,51.8,42.9,53.9,48.9,54L48.9,54z M33.4,22.4
            c0-0.1,0-0.1,0-0.2C34.1,7.4,44.6,5.8,49.1,5.8h0.2C55,5.9,64.5,8.2,65.1,22.2c0,0.1,0,0.1,0,0.2c0,0.1,1.5,14.2-5.1,21.6
            c-2.6,2.9-6.1,4.4-10.7,4.4h-0.2c-4.6,0-8.1-1.5-10.6-4.4C32,36.6,33.4,22.5,33.4,22.4L33.4,22.4z M33.4,22.4"/>
        <path d="M91.8,79.6L91.8,79.6c0-0.2,0-0.4,0-0.6c-0.1-4.1-0.4-13.7-9.4-16.8c-0.1,0-0.1,0-0.2-0.1c-9.3-2.4-17.1-7.8-17.2-7.8
            c-1.3-0.9-3-0.6-3.9,0.7c-0.9,1.3-0.6,3,0.7,3.9c0.4,0.2,8.6,6,18.9,8.6c4.8,1.7,5.4,6.9,5.5,11.6c0,0.2,0,0.4,0,0.5
            c0,1.9-0.1,4.7-0.4,6.4c-3.4,1.9-16.5,8.5-36.5,8.5c-19.9,0-33.2-6.6-36.5-8.5c-0.3-1.7-0.5-4.5-0.4-6.4c0-0.2,0-0.3,0-0.5
            c0.1-4.7,0.7-9.9,5.5-11.6c10.3-2.7,18.6-8.4,18.9-8.6c1.3-0.9,1.6-2.6,0.7-3.9c-0.9-1.3-2.6-1.6-3.9-0.7c-0.1,0.1-7.8,5.4-17.2,7.8
            c-0.1,0-0.1,0-0.2,0.1c-9,3.1-9.3,12.7-9.4,16.8c0,0.2,0,0.4,0,0.5v0.1c0,1.1,0,6.6,1.1,9.4c0.2,0.5,0.6,1,1.1,1.3
            c0.6,0.4,15.5,9.9,40.4,9.9s39.8-9.5,40.4-9.9c0.5-0.3,0.9-0.8,1.1-1.3C91.9,86.2,91.8,80.7,91.8,79.6L91.8,79.6z M91.8,79.6"/>
    </symbol>

    <symbol id="ico_personType--legal" viewBox="0 0 100 100">
        <path d="M48.9,54h0.7c6.1-0.1,11-2.2,14.6-6.3c8-9,6.6-24.4,6.5-25.9c-0.5-11-5.7-16.3-10-18.8c-3.2-1.8-7-2.8-11.1-2.9h-0.4
            C46.9,0.2,42.4,0.5,38,3c-4.3,2.5-9.7,7.7-10.2,18.9c-0.1,1.5-1.5,16.9,6.5,25.9C38,51.8,42.9,53.9,48.9,54L48.9,54z M33.4,22.4
            c0-0.1,0-0.1,0-0.2C34.1,7.4,44.6,5.8,49.1,5.8h0.2C55,5.9,64.5,8.2,65.1,22.2c0,0.1,0,0.1,0,0.2c0,0.1,1.5,14.2-5.1,21.6
            c-2.6,2.9-6.1,4.4-10.7,4.4h-0.2c-4.6,0-8.1-1.5-10.6-4.4C32,36.6,33.4,22.5,33.4,22.4L33.4,22.4z M33.4,22.4"/>
        <path d="M91.8,79.6L91.8,79.6c0-0.2,0-0.4,0-0.6c-0.1-4.1-0.4-13.7-9.4-16.8c-0.1,0-0.1,0-0.2-0.1c-9.3-2.4-17.1-7.8-17.2-7.8
            c-1.3-0.9-3-0.6-3.9,0.7c-0.9,1.3-0.6,3,0.7,3.9c0.4,0.2,8.6,6,18.9,8.6c4.8,1.7,5.4,6.9,5.5,11.6c0,0.2,0,0.4,0,0.5
            c0,1.9-0.1,4.7-0.4,6.4c-3.4,1.9-16.5,8.5-36.5,8.5c-19.9,0-33.2-6.6-36.5-8.5c-0.3-1.7-0.5-4.5-0.4-6.4c0-0.2,0-0.3,0-0.5
            c0.1-4.7,0.7-9.9,5.5-11.6c10.3-2.7,18.6-8.4,18.9-8.6c1.3-0.9,1.6-2.6,0.7-3.9c-0.9-1.3-2.6-1.6-3.9-0.7c-0.1,0.1-7.8,5.4-17.2,7.8
            c-0.1,0-0.1,0-0.2,0.1c-9,3.1-9.3,12.7-9.4,16.8c0,0.2,0,0.4,0,0.5v0.1c0,1.1,0,6.6,1.1,9.4c0.2,0.5,0.6,1,1.1,1.3
            c0.6,0.4,15.5,9.9,40.4,9.9s39.8-9.5,40.4-9.9c0.5-0.3,0.9-0.8,1.1-1.3C91.9,86.2,91.8,80.7,91.8,79.6L91.8,79.6z M91.8,79.6"/>
        <path d="M57.8,90.8l-5.9-20.4c1.8,0,3.1-1.7,2.7-3.5l-1.2-4.8C53.1,60.9,52,60,50.7,60h-2.7c-1.3,0-2.5,0.9-2.8,2.2L44,67
            c-0.4,1.8,0.9,3.5,2.7,3.5l-5.9,20.3c0,0,4,1.2,8.5,1.2S57.8,90.8,57.8,90.8z"/>
    </symbol>

    <symbol id="ico_personType--trader" viewBox="0 0 100 100">
        <path d="M48.9,54h0.7c6.1-0.1,11-2.2,14.6-6.3c8-9,6.6-24.4,6.5-25.9c-0.5-11-5.7-16.3-10-18.8c-3.2-1.8-7-2.8-11.1-2.9h-0.4
            C46.9,0.2,42.4,0.5,38,3c-4.3,2.5-9.7,7.7-10.2,18.9c-0.1,1.5-1.5,16.9,6.5,25.9C38,51.8,42.9,53.9,48.9,54L48.9,54z M33.4,22.4
            c0-0.1,0-0.1,0-0.2C34.1,7.4,44.6,5.8,49.1,5.8h0.2C55,5.9,64.5,8.2,65.1,22.2c0,0.1,0,0.1,0,0.2c0,0.1,1.5,14.2-5.1,21.6
            c-2.6,2.9-6.1,4.4-10.7,4.4h-0.2c-4.6,0-8.1-1.5-10.6-4.4C32,36.6,33.4,22.5,33.4,22.4L33.4,22.4z M33.4,22.4"/>
        <path d="M91.8,79.6L91.8,79.6c0-0.2,0-0.4,0-0.6c-0.1-4.1-0.4-13.7-9.4-16.8c-0.1,0-0.1,0-0.2-0.1c-9.3-2.4-17.1-7.8-17.2-7.8
            c-1.3-0.9-3-0.6-3.9,0.7c-0.9,1.3-0.6,3,0.7,3.9c0.4,0.2,8.6,6,18.9,8.6c4.8,1.7,5.4,6.9,5.5,11.6c0,0.2,0,0.4,0,0.5
            c0,1.9-0.1,4.7-0.4,6.4c-3.4,1.9-16.5,8.5-36.5,8.5c-19.9,0-33.2-6.6-36.5-8.5c-0.3-1.7-0.5-4.5-0.4-6.4c0-0.2,0-0.3,0-0.5
            c0.1-4.7,0.7-9.9,5.5-11.6c10.3-2.7,18.6-8.4,18.9-8.6c1.3-0.9,1.6-2.6,0.7-3.9c-0.9-1.3-2.6-1.6-3.9-0.7c-0.1,0.1-7.8,5.4-17.2,7.8
            c-0.1,0-0.1,0-0.2,0.1c-9,3.1-9.3,12.7-9.4,16.8c0,0.2,0,0.4,0,0.5v0.1c0,1.1,0,6.6,1.1,9.4c0.2,0.5,0.6,1,1.1,1.3
            c0.6,0.4,15.5,9.9,40.4,9.9s39.8-9.5,40.4-9.9c0.5-0.3,0.9-0.8,1.1-1.3C91.9,86.2,91.8,80.7,91.8,79.6L91.8,79.6z M91.8,79.6"/>

            <path d="M38.5,79.8c0,2.6-0.6,4.6-1.9,6s-3.1,2.1-5.5,2.1s-4.3-0.7-5.5-2.1s-1.9-3.4-1.9-6c0-2.6,0.6-4.6,1.9-6
                c1.3-1.4,3.1-2.1,5.6-2.1c2.4,0,4.3,0.7,5.5,2.1C37.8,75.2,38.5,77.2,38.5,79.8z M27,79.8c0,1.8,0.3,3.1,1,4s1.7,1.3,3,1.3
                c2.7,0,4-1.8,4-5.3c0-3.5-1.3-5.3-4-5.3c-1.3,0-2.3,0.4-3,1.3C27.3,76.7,27,78,27,79.8z"/>
            <path d="M49.2,83.3c0,1.4-0.5,2.5-1.5,3.4c-1,0.8-2.4,1.2-4.3,1.2c-1.7,0-3.2-0.3-4.4-0.9v-3.1c1.1,0.5,2,0.8,2.7,1
                c0.7,0.2,1.4,0.3,2,0.3c0.7,0,1.3-0.1,1.7-0.4c0.4-0.3,0.6-0.7,0.6-1.2c0-0.3-0.1-0.6-0.3-0.8c-0.2-0.2-0.4-0.5-0.8-0.7
                s-1-0.6-2-1.1c-1-0.5-1.7-0.9-2.2-1.3c-0.5-0.4-0.9-0.9-1.1-1.5c-0.3-0.6-0.4-1.2-0.4-1.9c0-1.4,0.5-2.5,1.4-3.3
                c0.9-0.8,2.2-1.2,3.9-1.2c0.8,0,1.6,0.1,2.3,0.3s1.5,0.5,2.3,0.8l-1.1,2.6c-0.8-0.3-1.5-0.6-2.1-0.7c-0.5-0.1-1.1-0.2-1.6-0.2
                c-0.6,0-1.1,0.1-1.5,0.4c-0.3,0.3-0.5,0.7-0.5,1.1c0,0.3,0.1,0.5,0.2,0.8c0.1,0.2,0.4,0.4,0.6,0.6c0.3,0.2,1,0.6,2.1,1.1
                c1.5,0.7,2.5,1.4,3,2.1C49,81.4,49.2,82.3,49.2,83.3z"/>
            <path d="M60.6,71.9H64l-5.3,15.7H55l-5.3-15.7H53l3,9.3c0.2,0.6,0.3,1.2,0.5,1.9c0.2,0.7,0.3,1.2,0.3,1.5c0.1-0.7,0.3-1.8,0.8-3.5
                L60.6,71.9z"/>
            <path d="M70.4,74.5c-1.3,0-2.2,0.5-2.9,1.4s-1,2.3-1,3.9c0,3.5,1.3,5.3,3.9,5.3c1.1,0,2.4-0.3,4-0.8V87c-1.3,0.5-2.7,0.8-4.3,0.8
                c-2.3,0-4-0.7-5.2-2.1c-1.2-1.4-1.8-3.4-1.8-6c0-1.6,0.3-3.1,0.9-4.3s1.4-2.2,2.6-2.8c1.1-0.7,2.4-1,3.9-1c1.5,0,3.1,0.4,4.6,1.1
                l-1.1,2.7c-0.6-0.3-1.2-0.5-1.8-0.7C71.6,74.6,71,74.5,70.4,74.5z M74.9,67.2v0.3c-0.6,0.6-1.2,1.2-1.7,1.8
                c-0.5,0.6-0.9,1.1-1.1,1.4h-3.8c-0.2-0.3-0.5-0.7-0.9-1.2s-1-1.1-1.9-2v-0.3h2.2c1.1,0.7,1.9,1.3,2.5,1.9c0.6-0.6,1.4-1.3,2.5-1.9
                H74.9z"/>
    </symbol>


    <symbol id="ico_profile" viewBox="0 0 100 100">
        <path d="M90,10H10C4.5,10,0,14.5,0,20l0,60c0,5.5,4.5,10,10,10h80c5.5,0,10-4.5,10-10V20
            C100,14.5,95.5,10,90,10z M10,20h80v60H10V20z"/>
        <path d="M55.4,63.1c-0.3-2-1.8-3.6-3.7-4.1L43,56.8v-3.1c3.2-2.2,5.2-5.9,5.2-9.9v-5.2c0-5.7-4.6-10.3-10.3-10.3h-3.5
            c-5.7,0-10.3,4.6-10.3,10.3v5.2c0,3.9,2,7.6,5.2,9.9v3.1l-8.7,2.2c-1.9,0.5-3.4,2.1-3.7,4.1l-0.7,4.1c-0.2,1.5,0.2,3,1.1,4.1
            c1,1.1,2.4,1.8,3.9,1.8h29.9c1.5,0,2.9-0.7,3.9-1.8c1-1.1,1.4-2.6,1.1-4.1L55.4,63.1z"/>
        <path d="M59.4,36.3h16.9c1.8,0,3.2-1.5,3.2-3.2c0-1.8-1.5-3.2-3.2-3.2H59.4c-1.8,0-3.2,1.5-3.2,3.2
            C56.2,34.9,57.6,36.3,59.4,36.3L59.4,36.3z M59.4,36.3"/>
        <path d="M59.4,47.8h20.8c1.8,0,3.2-1.5,3.2-3.2c0-1.8-1.5-3.2-3.2-3.2H59.4c-1.8,0-3.2,1.5-3.2,3.2
            C56.2,46.3,57.6,47.8,59.4,47.8L59.4,47.8z M59.4,47.8"/>
    </symbol>

    <symbol id="ico_moon" viewBox="0 0 100 100">
        <path d="M97.8,68.5c-0.2-0.9-0.5-1.6-1.1-2.2c-1.3-1.3-2.9-1.6-4.7-0.8c-4.8,2.2-9.7,3.3-14.9,3.3c-6.4,0-12.4-1.6-17.8-4.8
        c-5.4-3.2-9.7-7.5-12.9-12.9c-3.2-5.4-4.8-11.4-4.8-17.8c0-5,1-9.7,3-14.2c2-4.5,4.8-8.4,8.6-11.8c1.4-1.3,1.8-2.9,1-4.7
        c-0.7-1.8-2.1-2.6-4-2.5c-6.6,0.3-12.9,1.7-18.9,4.5c-6,2.7-11.1,6.3-15.3,10.7c-4.3,4.4-7.7,9.7-10.2,15.7C3.3,37,2,43.4,2,50
        c0,6.8,1.3,13.2,4,19.4c2.7,6.2,6.2,11.5,10.7,16c4.5,4.5,9.8,8,16,10.7c6.2,2.7,12.6,4,19.4,4c9.7,0,18.7-2.6,26.9-7.9
        c8.2-5.3,14.4-12.3,18.5-21.1C97.8,70.2,97.9,69.4,97.8,68.5L97.8,68.5z M69.9,87.7c-5.6,2.7-11.6,4-17.8,4c-5.6,0-11-1.1-16.2-3.3
        c-5.1-2.2-9.6-5.2-13.3-8.9c-3.7-3.7-6.7-8.1-8.9-13.3C11.5,61,10.4,55.6,10.4,50c0-9.3,2.8-17.7,8.3-25
        c5.5-7.3,12.7-12.3,21.4-14.9c-4.5,7.2-6.8,14.9-6.8,23.3c0,7.9,2,15.2,5.9,22c3.9,6.7,9.2,12,16,16c6.7,3.9,14,5.9,22,5.9
        c2.4,0,4.8-0.2,7.2-0.6C80.3,81.3,75.5,85,69.9,87.7L69.9,87.7z M69.9,87.7"/>
    </symbol>

    <symbol id="ico_globe" viewBox="0 0 100 100">
        <path d="M51.6,0c-0.3,0-0.6,0-0.9,0c-0.1,0-0.2,0-0.2,0c-0.1,0-0.3,0-0.4,0C22.4,0,0,22.4,0,50c0,27.6,22.4,50,50,50
            c27.6,0,50-22.4,50-50C100,23,78.4,0.9,51.6,0L51.6,0z M50.8,92.7c0,0-0.1,0-0.1,0c0,0-0.1,0-0.1,0H50.8z M46.4,91.7
            c-5-2.2-9.5-8.3-12.5-16.6c3.9-1,8.2-1.6,12.5-1.8V91.7z M46.4,66c-5.1,0.3-10,1-14.6,2.2c-1.1-4.5-1.8-9.4-2-14.5h16.6V66z
             M29.8,46.4c0.2-5.7,1.1-11.1,2.3-15.9c4.5,1.1,9.3,1.8,14.2,2v13.9H29.8z M46.4,25.2c-4.1-0.2-8.2-0.8-12-1.7
            c3-7.6,7.2-13.1,12-15.2V25.2z M53.6,32.5c5.4-0.2,10.6-0.9,15.6-2.1c1.3,4.9,2.1,10.3,2.3,15.9H53.6V32.5z M53.6,25.3V7.7
            c5.3,1.6,10,7.5,13.3,15.8C62.8,24.5,58.3,25.1,53.6,25.3L53.6,25.3z M69,11.8c3.8,1.9,7.3,4.3,10.3,7.2c-1.7,0.9-3.5,1.7-5.4,2.4
            C72.5,17.8,70.9,14.6,69,11.8L69,11.8z M27.4,21.4c-2.2-0.8-4.3-1.8-6.2-2.8c3.5-3.2,7.4-5.8,11.8-7.7
            C30.8,13.9,28.9,17.4,27.4,21.4L27.4,21.4z M25.1,28.3c-1.5,5.5-2.4,11.6-2.6,18.1H7.4c0.7-8.4,3.8-16,8.7-22.3
            C18.8,25.7,21.9,27.1,25.1,28.3L25.1,28.3z M22.5,53.6c0.2,5.9,1,11.6,2.3,16.7c-3.4,1.3-6.6,2.8-9.5,4.6
            c-4.4-6.1-7.2-13.4-7.9-21.3L22.5,53.6z M26.9,77.3c1.6,4.5,3.7,8.6,6.1,11.9c-4.8-2.1-9.1-5-12.8-8.7
            C22.2,79.3,24.5,78.2,26.9,77.3L26.9,77.3z M53.6,92.2v-19c4.8,0.2,9.5,0.9,13.8,1.9C64.2,84.1,59.2,90.5,53.6,92.2L53.6,92.2z
             M53.6,65.9V53.6h17.9c-0.2,5.1-0.9,10-2,14.5C64.5,66.9,59.2,66.1,53.6,65.9L53.6,65.9z M78.8,53.6h13.8
            c-0.6,7.7-3.3,14.8-7.5,20.7c-2.6-1.6-5.5-2.9-8.6-4.1C77.8,65.2,78.6,59.6,78.8,53.6L78.8,53.6z M78.8,46.4
            c-0.2-6.5-1.2-12.6-2.6-18.1c2.9-1.1,5.6-2.3,8.1-3.7c4.6,6.2,7.6,13.7,8.3,21.8H78.8z M69,88.3c2.1-3.2,3.9-6.9,5.4-11
            c2.1,0.8,4.1,1.7,5.9,2.8C77,83.4,73.2,86.2,69,88.3L69,88.3z M69,88.3"/>
    </symbol>

    <symbol id="ico_degree" viewBox="0 0 100 100">
        <path d="M82.6,24.4H15.3c-1.6,0-3,1.3-3,3c0,1.6,1.3,3,3,3h67.3c1.6,0,3-1.3,3-3C85.6,25.8,84.2,24.4,82.6,24.4
            L82.6,24.4z M82.6,24.4"/>
        <path d="M93.1,7.4H6.9C3.1,7.4,0,10.5,0,14.3v58.5c0,3.8,3.1,6.9,6.9,6.9h50.2l-1.5,9.3c-0.3,1.7,0.3,3.3,1.5,4.2
            c1.3,0.9,2.9,0.9,4.5,0.1l10.8-5.7c0.3-0.2,1.1-0.2,1.4,0l10.8,5.7c0.7,0.4,1.5,0.6,2.2,0.6c0.8,0,1.6-0.2,2.2-0.7
            c1.2-0.9,1.8-2.5,1.5-4.2l-1.5-9.3h3.8c3.8,0,6.9-3.1,6.9-6.9V14.3C100,10.5,96.9,7.4,93.1,7.4L93.1,7.4z M73.2,67.8
            c-6.7,0-12.1-5.4-12.1-12.1s5.4-12.1,12.1-12.1s12.1,5.4,12.1,12.1S79.9,67.8,73.2,67.8L73.2,67.8z M76.7,82.3c-2-1.1-5-1.1-7,0
            l-7.7,4l2.4-14.9c2.6,1.4,5.6,2.3,8.7,2.3c3.2,0,6.1-0.8,8.7-2.3l0.9,5.8c0,0,0,0,0,0l1.5,9L76.7,82.3z M94.1,72.7c0,0.5-0.5,1-1,1
            h-4.7l-1.1-6.6c0,0,0-0.1,0-0.1c2.5-3.1,4-7,4-11.3c0-9.9-8.1-18-18-18c-9.9,0-18,8.1-18,18c0,4.3,1.5,8.2,4,11.3c0,0,0,0.1,0,0.1
            l-1.1,6.6c0,0-0.1,0-0.1,0H6.9c-0.5,0-1-0.5-1-1V14.3c0-0.5,0.5-1,1-1h86.2c0.5,0,1,0.5,1,1V72.7z M94.1,72.7"/>
        <path d="M43.8,40.5H15.3c-1.6,0-3,1.3-3,3c0,1.6,1.3,3,3,3h28.5c1.6,0,3-1.3,3-3C46.8,41.9,45.4,40.5,43.8,40.5
            L43.8,40.5z M43.8,40.5"/>
    </symbol>



<!-- / PERSON TYPES (AVATARS) -->  



<!-- row-02__INSURANCE -->
    <symbol id="ico_personalInsurance--vehicle" viewBox="0 0 100 100">
            <path d="M26.9,96.6H12.1c-0.9,0-1.6-0.9-1.6-2L9.2,83.5c0-1.1,0.7-2,1.6-2h16c0.9,0,1.6,0.9,1.6,2v11.1
                C28.5,95.7,27.8,96.6,26.9,96.6z"/>
            <path d="M89,96.6H74.2c-0.9,0-1.6-0.9-1.6-2V83.5c0-1.1,0.7-2,1.6-2h16c0.9,0,1.6,0.9,1.6,2l-1.2,11.1
                C90.7,95.7,89.9,96.6,89,96.6z"/>
            <path fill="#FFFFFF" d="M81.8,41.2h0.3V30.4c0-7.3-4.8-23.5-10.8-23.5L29.5,3.4c-5.9,0-10.8,19.7-10.8,27.1v10.8H19
                c-7.6,1.1-13.5,9.1-13.5,18.7v15.3h89.7V59.9C95.3,50.3,89.3,42.3,81.8,41.2z"/>
            <path d="M77.6,41.2V32c0-6.2-4.1-20-9.2-20L32.8,8.5c-5,0-9.2,17.3-9.2,23.6v9.2H77.6z"/>
            <circle fill="#B3B5B8" cx="16.2" cy="62" r="6.2"/>
            <circle fill="#B3B5B8" cx="85.3" cy="62" r="6.2"/>
            <path d="M74.7,69.1v-0.5c0-4.5-3.7-8.2-8.2-8.2H34.4c-4.5,0-8.2,3.7-8.2,8.2v0.5H5.6v6.2h20.6h48.6h20.6v-6.2H74.7z"/>
            <path fill="#B3B5B8" d="M97.1,88.6L2.5,87c-0.9,0-1.6-0.9-1.6-2L0,76.4c0-1.1,0.7-2,1.6-2l96.7,1c0.9,0,1.6,0.9,1.6,2l-1.2,9.1
                C98.8,87.7,98,88.6,97.1,88.6z"/>
    </symbol>

    <symbol id="ico_personalInsurance--travel" viewBox="0 0 100 100">
            <path fill="#FFFFFF" d="M23.6,94.2c-3.3,0-5.9,2.6-6,5.8h59.4c-0.1-3.2-2.8-5.8-6-5.8H23.6z"/>
            <path d="M65.8,94.2H28.9c0.5-1.5,1.9-2.6,3.6-2.6h10.4V83h9v8.6h10.4C63.9,91.6,65.3,92.7,65.8,94.2z"/>
            <path fill="#FFFFFF" d="M16.8,63.4c0.9,1.2,1.9,2.3,3,3.4C35,82,59.7,82,74.9,66.7c15.2-15.2,15.2-39.9,0-55.2
                c-1.1-1.1-2.2-2.1-3.4-3l3.9-3.9c1.1,0.9,2.3,1.9,3.3,3c17.4,17.4,17.4,45.6,0,63c-17.4,17.4-45.6,17.4-63,0
                c-1.1-1.1-2.1-2.2-3-3.3L16.8,63.4z"/>
            <path fill="#B3B5B8" d="M70.8,15.4c-0.2-0.2-0.4-0.3-0.5-0.5l8.1-8.1c0.3,0.1,0.5,0.1,0.8,0.1c1.9,0,3.5-1.5,3.5-3.5
                c0-1.9-1.5-3.5-3.5-3.5c-1.9,0-3.4,1.5-3.4,3.5c0,0.2,0,0.4,0.1,0.5l-8.5,8.5c-13.1-10-31.9-9-43.9,3c-12,12-13,30.9-2.9,44
                l-8.1,8.1c-0.3-0.1-0.5-0.1-0.8-0.1c-1.9,0-3.5,1.5-3.5,3.5c0,1.9,1.5,3.5,3.5,3.5c1.9,0,3.4-1.5,3.4-3.5c0-0.2,0-0.4-0.1-0.5
                l8-8c0.1,0.1,0.3,0.3,0.4,0.4L70.8,15.4z"/>
            <path d="M70.8,15.4c13,13,13,34.3,0,47.3c-13,13-34.3,13-47.3,0"/>
    </symbol>

    <symbol id="ico_personalInsurance--property" viewBox="0 0 100 100">
            <path fill="#FFFFFF" d="M60.5,100l-22-2.4c-4.3,0-7.7-3.5-7.7-7.7l3-79.8c0-4.3,3.5-7.7,7.7-7.7L59.9,0c4.3,0,7.7,3.5,7.7,7.7
                l0.6,84.5C68.2,96.5,64.8,100,60.5,100z"/>
            <path d="M67.6,7.7c0-3.1-1.8-5.8-4.5-7C64,2,64.5,3.5,64.5,5.1l0.6,84.5c0,4.3-3.5,7.7-7.7,7.7l-22-2.4c-1.2,0-2.3-0.3-3.3-0.7
                c1.4,2.1,3.8,3.4,6.4,3.4l22,2.4c4.3,0,7.7-3.5,7.7-7.7L67.6,7.7z"/>
            <path d="M43,9c-0.3-1.4-1.5-2.4-3-2.4c-1.5,0-2.7,1-3,2.4H43z"/>
            <path d="M37,10.3c0.3,1.4,1.5,2.4,3,2.4c1.5,0,2.7-1,3-2.4H37z"/>
            <path d="M61.3,7.8c-0.3-1.4-1.5-2.4-3-2.4s-2.7,1-3,2.4H61.3z"/>
            <path d="M55.3,9.1c0.3,1.4,1.5,2.4,3,2.4s2.7-1,3-2.4H55.3z"/>
            <path d="M39.5,87.6c-0.3-1.4-1.5-2.4-3-2.4c-1.5,0-2.7,1-3,2.4H39.5z"/>
            <path d="M33.5,89c0.3,1.4,1.5,2.4,3,2.4c1.5,0,2.7-1,3-2.4H33.5z"/>
            <path d="M61.3,89.4C61,88,59.7,87,58.3,87s-2.7,1-3,2.4H61.3z"/>
            <path d="M55.3,90.7c0.3,1.4,1.5,2.4,3,2.4s2.7-1,3-2.4H55.3z"/>
            <path fill="#FFFFFF" d="M49.6,45.2H8.2C4.2,45.2,1,42,1,38v0c0-4,3.2-7.2,7.2-7.2h41.3c4,0,7.2,3.2,7.2,7.2v0
                C56.8,42,53.5,45.2,49.6,45.2z"/>
            <path d="M53.2,31v5.2c0,2.7-2.2,5-5,5H2.4c-0.5,0-1-0.1-1.4-0.2c0.4,2.4,2.4,4.2,4.9,4.2h45.8c2.7,0,5-2.2,5-5v-4.5
                C56.7,33.5,55.2,31.6,53.2,31z"/>
            <path d="M53.3,57.9c0-2.6-2.1-4.7-4.7-4.7c-2.6,0-4.7,2.1-4.7,4.7c0,1.5,0.7,2.9,1.9,3.8l-1.1,9.9h7.9l-1.1-9.9
                C52.5,60.8,53.3,59.5,53.3,57.9z"/>
    </symbol>

    <symbol id="ico_personalInsurance--responsibility" viewBox="0 0 100 100">
            <path fill="#FFFFFF" d="M41.9,45.6l8.5,9.3l11.9-5.2l13.1,7.1L83.3,17c0.8-4-1.8-8-5.8-8.8L36.8,0.1c-4-0.8-8,1.8-8.8,5.8
                l-7.1,35.6L31.3,50L41.9,45.6z"/>
            <path fill="#FFFFFF" d="M58.6,55.3L48,62.8l-10.1-7.4l-9.6,6.4l-11.8-6.2v37.1c0,4.1,3.4,7.4,7.4,7.4h41.5c4.1,0,7.4-3.4,7.4-7.4
                V59.7L58.6,55.3z"/>
            <polygon fill="#010101" points="58.6,55.3 48,62.8 37.9,55.3 28.3,61.7 21.6,58.2 21.6,85.1 67.8,85.1 67.8,58.1           "/>
            <polygon fill="#010101" points="41.9,45.6 50.4,54.9 62.3,49.7 70.8,54.3 78.8,13.9 33.4,4.9 25.4,45.2 31.3,50            "/>
            <circle fill="#010101" cx="44.7" cy="92" r="3.7"/>
    </symbol>

    <symbol id="ico_personalInsurance--accident" viewBox="0 0 100 100">
            <path d="M82.4,41.1c-3.7,1.3-7.2,4.2-9.8,6.9c-2,2.1-3.9,7-7.5,6.6c-2.7-0.2-3.7-3.2-4.1-6V17.3c0-2.7-2.2-5-5-5h0
            c-2.7,0-5,2.2-5,5v26l-6.6-32.1c-0.6-2.9-3.5-4.7-6.4-4.1l-0.7,0.2c-2.9,0.6-4.7,3.5-4.1,6.4l6.2,28.7L28.3,23.2
            c-1.5-2.3-4.6-3-6.9-1.6v0c-2.3,1.5-3,4.6-1.6,6.9l13,23.5L17.5,40.4c-2.3-1.5-5.4-1.2-6.9,1.1v0c-1.5,2.3-0.3,5.4,1.1,6.3l17,15
            l7.5,18.6l-2.7,8.2c0,0-0.9,4.2,6.7,7l10.9,3c0,0,6.7,2.7,9.1-4.8L68,71.4c0,0,20.8-24.7,20.9-24.8C92.7,42,86,39.8,82.4,41.1z"
            />
            <path fill="#FFFFFF" d="M72.2,14.3C72.2,7.7,65.7,0,57.5,0S42.8,7.2,42.8,13.8l2.6,29.7c0,0,1.2,5.5,5.9,5.5s6.7,0,12.1,0
            s6.3-5.4,6.3-5.4L72.2,14.3z"/>

            <path d="M49.5,36c0,0,0.3,0,0.8,0.1c0.5,0.1,1.2,0.2,2.1,0.5c0.8,0.2,1.8,0.5,2.8,0.9c1,0.4,2.1,0.8,3.1,1.3
            c2.1,0.9,4.1,2.1,5.5,3c0.7,0.5,1.3,0.9,1.7,1.2c0.4,0.3,0.6,0.5,0.6,0.5s-0.3,0-0.8-0.1c-0.5-0.1-1.2-0.2-2.1-0.5
            c-1.7-0.5-3.8-1.2-5.9-2.2c-1-0.5-2.1-1-3-1.5c-0.9-0.5-1.8-1-2.5-1.5c-0.7-0.5-1.3-0.9-1.7-1.2C49.7,36.2,49.5,36,49.5,36z"/>

            <path d="M48.9,42.3c0,0,0.2-0.3,0.7-0.9c0.4-0.5,1-1.3,1.8-2.1c0.8-0.9,1.7-1.8,2.7-2.8c1-1,2.2-2,3.3-3c2.3-2,4.7-3.9,6.7-5.2
            c0.9-0.7,1.8-1.2,2.4-1.5c0.6-0.3,0.9-0.5,0.9-0.5s-0.2,0.3-0.7,0.9c-0.4,0.5-1,1.3-1.8,2.1c-1.6,1.7-3.7,3.9-6,5.9
            c-1.2,1-2.3,2-3.5,2.9c-1.1,0.9-2.2,1.7-3.2,2.3c-0.9,0.7-1.8,1.2-2.4,1.5C49.3,42.1,48.9,42.3,48.9,42.3z"/>

            <path d="M67.7,32.6c0,0-0.4-0.1-1-0.4C66,32,65.1,31.7,64,31.2c-1.1-0.5-2.3-1.1-3.6-1.7c-1.3-0.7-2.7-1.4-4-2.2
            c-2.7-1.6-5.3-3.3-7.1-4.7c-0.9-0.7-1.7-1.3-2.2-1.8c-0.5-0.4-0.8-0.7-0.8-0.7s0.4,0.1,1,0.4c0.6,0.2,1.6,0.6,2.6,1.1
            c2.2,0.9,4.9,2.3,7.6,3.9c1.3,0.8,2.7,1.6,3.9,2.4c1.2,0.8,2.3,1.6,3.3,2.3c0.9,0.7,1.7,1.3,2.2,1.8
            C67.4,32.4,67.7,32.6,67.7,32.6z"/>

            <path d="M47.6,26.5c0,0,1.1-1.2,2.9-2.7c0.9-0.8,2-1.7,3.2-2.5c0.6-0.4,1.2-0.9,1.8-1.4c0.6-0.4,1.3-0.9,1.9-1.4
            c0.7-0.4,1.3-0.9,2-1.3c0.6-0.4,1.3-0.8,2-1.2c1.3-0.8,2.5-1.4,3.6-2c2.1-1.1,3.6-1.7,3.6-1.7s-1.1,1.2-2.9,2.7
            c-0.9,0.8-2,1.7-3.2,2.5c-0.6,0.4-1.2,0.9-1.8,1.4c-0.6,0.4-1.3,0.9-1.9,1.4c-0.7,0.4-1.3,0.9-2,1.3c-0.6,0.4-1.3,0.8-2,1.2
            c-1.3,0.8-2.5,1.4-3.6,2C49.1,26,47.6,26.5,47.6,26.5z"/>

            <path d="M68.3,18.4c0,0-0.4-0.1-1-0.3c-0.6-0.2-1.5-0.4-2.4-0.8c-1-0.4-2.1-0.8-3.4-1.3c-1.2-0.5-2.5-1.1-3.7-1.8
            c-2.5-1.3-4.9-2.7-6.7-3.9c-0.9-0.6-1.6-1.1-2.1-1.5c-0.5-0.4-0.8-0.6-0.8-0.6s0.4,0.1,1,0.2c0.6,0.2,1.5,0.4,2.5,0.8
            c2,0.7,4.6,1.8,7.1,3.1c1.2,0.6,2.5,1.3,3.6,2c1.1,0.7,2.2,1.3,3,2c0.9,0.6,1.6,1.1,2.1,1.5C68,18.2,68.3,18.4,68.3,18.4z"/>

            <path d="M45.2,14.9c0,0,0.2-0.3,0.6-0.7c0.4-0.4,0.9-1,1.6-1.6c0.7-0.6,1.5-1.3,2.4-2.1c0.9-0.7,1.9-1.4,3-2.1
            c2.1-1.4,4.2-2.6,5.9-3.4c0.8-0.4,1.6-0.7,2.1-0.9c0.5-0.2,0.8-0.3,0.8-0.3S61.4,4.1,61,4.5c-0.4,0.4-0.9,1-1.6,1.6
            C58,7.4,56.1,8.9,54,10.3c-1,0.7-2.1,1.3-3.1,1.9c-1,0.6-2,1.1-2.8,1.5c-0.8,0.4-1.6,0.7-2.1,0.9C45.5,14.8,45.2,14.9,45.2,14.9
            z"/>
    </symbol>






    <symbol id="ico_email" viewBox="0 0 100 100">
                <path d="M53.8,0C43.6,0,34.4,2.2,26.4,6.8c-8,4.5-14.3,11-18.6,19.2c-4.3,8.2-6.5,17.5-6.5,27.9c0,14.3,4.1,25.8,12.3,34
                    C21.9,96,33.5,100,48,100c9.7,0,18.4-1.7,26.2-5.1c0.8-0.4,1.4-1.3,1.4-2.2v-7.7c0-0.8-0.4-1.5-1-2c-0.6-0.4-1.5-0.5-2.2-0.3
                    c-8.5,3.2-16.6,4.8-24.4,4.8c-11.3,0-19.5-3-25.2-8.8c-5.7-5.8-8.6-14.1-8.6-25.5c0-8.4,1.6-15.6,4.8-21.9
                    c3.2-6.2,7.7-10.9,13.6-14.3c6-3.4,13-5.1,21.3-5.1c6.5,0,12.1,1.3,17,4c4.9,2.6,8.6,6.3,11.2,11.2c2.6,4.9,4,10.5,4,17.2
                    c0,6.4-1.1,11.4-3,15.1c-2,3.7-3.9,5-6.5,5c-2,0-3-0.5-3.9-1.6c-0.8-1.1-1.5-3.2-1.5-6.3v-1.3l1.4-27.1c0.1-1-0.7-2.1-1.7-2.4
                    c-2.8-0.9-5.9-1.6-9.3-2.1c-3.4-0.5-6.5-0.7-9.2-0.7c-7.9,0-14.7,2.7-19.7,8.1c-5,5.4-7.5,12.5-7.5,20.8
                    c0,7.2,1.8,13.2,5.4,17.6c3.7,4.5,9.1,6.8,15.4,6.8c4.3,0,8.2-1.1,11.5-3.2c1.9-1.3,3.6-2.9,4.9-4.7c0.8,1.6,1.9,3.1,3.3,4.3
                    c2.7,2.4,6.2,3.6,10,3.6c4.5,0,8.7-1.5,12.1-4.3c3.5-2.8,6.1-6.7,7.9-11.6c1.8-4.8,2.7-10.2,2.7-15.9c0-8.7-1.8-16.5-5.6-23.3
                    C89.3,14.5,84,9.2,77.1,5.5C70.3,1.8,62.5,0,53.8,0L53.8,0z M52.5,35c2.4,0,4.6,0.2,6.6,0.6l-0.7,13.1v0
                    C58,54.5,56.8,58.6,55,61c-1.8,2.5-3.9,3.5-7.3,3.5c-3.2,0-5.2-0.9-6.6-2.7c-1.4-1.8-2.3-5-2.3-9.6c0-5.8,1.3-10,3.7-13
                    C44.9,36.3,48,35,52.5,35L52.5,35z M52.5,35"/>
    </symbol>




    <symbol id="ico_calendar" viewBox="0 0 100 100">
        <path d="M76,74.9c0-1.3-1-2.3-2.3-2.3h-7.9c-1.3,0-2.3,1-2.3,2.3v7.9c0,1.3,1,2.3,2.3,2.3h7.9c1.2,0,2.3-1,2.3-2.3V74.9z
             M76,74.9"/>
        <path d="M90.1,11.1v12.1c0,5.5-4.4,9.9-9.9,9.9H74c-5.5,0-9.9-4.4-9.9-9.9V11.1H35.9v12.1c0,5.5-4.5,9.9-9.9,9.9h-6.2
            c-5.5,0-9.9-4.4-9.9-9.9V11.1c-4.8,0.1-8.7,4.1-8.7,8.9v70.8c0,4.9,4,9,9,9h79.8c4.9,0,9-4.1,9-9V20.1
            C98.8,15.2,94.9,11.3,90.1,11.1L90.1,11.1z M87.2,86.5c0,2.1-1.7,3.9-3.9,3.9H16.5c-2.1,0-3.9-1.7-3.9-3.9V49.9
            c0-2.1,1.7-3.9,3.9-3.9h66.9c2.1,0,3.9,1.7,3.9,3.9V86.5z M87.2,86.5"/>
        <path d="M36.5,55.1c0-1.3-1-2.3-2.3-2.3h-7.9c-1.3,0-2.3,1-2.3,2.3V63c0,1.3,1,2.3,2.3,2.3h7.9c1.3,0,2.3-1,2.3-2.3V55.1z
             M36.5,55.1"/>
        <path d="M56.2,55.1c0-1.3-1-2.3-2.3-2.3H46c-1.3,0-2.3,1-2.3,2.3V63c0,1.3,1,2.3,2.3,2.3H54c1.2,0,2.3-1,2.3-2.3V55.1z
             M56.2,55.1"/>
        <path d="M76,55.1c0-1.3-1-2.3-2.3-2.3h-7.9c-1.3,0-2.3,1-2.3,2.3V63c0,1.3,1,2.3,2.3,2.3h7.9c1.3,0,2.3-1,2.3-2.3V55.1z
             M76,55.1"/>
        <path d="M36.5,74.9c0-1.3-1-2.3-2.3-2.3h-7.9c-1.3,0-2.3,1-2.3,2.3v7.9c0,1.3,1,2.3,2.3,2.3h7.9c1.3,0,2.3-1,2.3-2.3V74.9z
             M36.5,74.9"/>
        <path d="M56.2,74.9c0-1.3-1-2.3-2.3-2.3H46c-1.3,0-2.3,1-2.3,2.3v7.9c0,1.3,1,2.3,2.3,2.3H54c1.2,0,2.3-1,2.3-2.3V74.9z
             M56.2,74.9"/>
        <path d="M19.7,26.6h6.2c1.9,0,3.4-1.5,3.4-3.4V3.4c0-1.9-1.5-3.4-3.4-3.4h-6.2c-1.9,0-3.4,1.5-3.4,3.4v19.8
            C16.3,25.1,17.9,26.6,19.7,26.6L19.7,26.6z M19.7,26.6"/>
        <path d="M73.9,26.6h6.2c1.9,0,3.4-1.5,3.4-3.4V3.4C83.5,1.5,82,0,80.1,0h-6.2c-1.9,0-3.4,1.5-3.4,3.4v19.8
            C70.5,25.1,72.1,26.6,73.9,26.6L73.9,26.6z M73.9,26.6"/>
    </symbol>

<!-- /row-02__INSURANCE -->  


<!-- row-03 - Social Icons -->  
    <symbol id="ico_Behance" viewBox="0 0 100 100">
        <path d="M90.3,27.7H65.2v-6.2h25.1V27.7z M48.6,53.2c1.6,2.5,2.4,5.5,2.4,9.1c0,3.7-0.9,7-2.8,9.9
        c-1.2,1.9-2.6,3.6-4.4,4.9c-2,1.5-4.3,2.6-7,3.1c-2.7,0.6-5.6,0.8-8.8,0.8H0V18.9h30.1c7.6,0.1,12.9,2.3,16.1,6.6
        c1.9,2.6,2.8,5.8,2.8,9.5c0,3.8-1,6.8-2.9,9.2c-1.1,1.3-2.6,2.5-4.7,3.5C44.6,48.9,47,50.7,48.6,53.2L48.6,53.2z M14.3,43.4h13.2
        c2.7,0,4.9-0.5,6.6-1.5c1.7-1,2.5-2.8,2.5-5.5c0-2.9-1.1-4.8-3.3-5.7c-1.9-0.6-4.4-1-7.3-1H14.3V43.4z M37.9,61.4
        c0-3.2-1.3-5.5-4-6.7c-1.5-0.7-3.6-1-6.2-1.1H14.3v16.6h13.2c2.7,0,4.8-0.4,6.3-1.1C36.5,67.9,37.9,65.3,37.9,61.4L37.9,61.4z
        M99.6,51.3c0.3,2,0.4,5,0.4,8.8H67.5c0.2,4.5,1.7,7.6,4.7,9.4c1.8,1.1,3.9,1.7,6.4,1.7c2.6,0,4.8-0.7,6.5-2
        c0.9-0.7,1.7-1.8,2.4-3.1h11.9c-0.3,2.6-1.7,5.3-4.3,8.1c-4,4.3-9.6,6.5-16.8,6.5c-5.9,0-11.2-1.8-15.7-5.5
        c-4.5-3.7-6.8-9.6-6.8-17.9c0-7.7,2-13.6,6.1-17.8c4.1-4.1,9.4-6.2,15.9-6.2c3.9,0,7.4,0.7,10.5,2.1c3.1,1.4,5.7,3.6,7.7,6.6
        C97.9,44.8,99.1,47.8,99.6,51.3L99.6,51.3z M87.9,52.5c-0.2-3.1-1.3-5.4-3.1-7c-1.8-1.6-4.1-2.4-6.9-2.4c-3,0-5.3,0.9-6.9,2.6
        c-1.7,1.7-2.7,4-3.1,6.9H87.9z M87.9,52.5"/>
    </symbol>

    <symbol id="ico_Dribbble" viewBox="0 0 100 100">
        <path fill-rule="evenodd" clip-rule="evenodd" d="M50,99.9C22.4,99.9,0,77.5,0,50C0,22.5,22.4,0.1,50,0.1
        c27.6,0,50,22.4,50,49.9C100,77.5,77.6,99.9,50,99.9L50,99.9z M92.2,56.8c-1.5-0.5-13.2-4-26.6-1.8c5.6,15.3,7.9,27.8,8.3,30.4
        C83.4,79,90.3,68.7,92.2,56.8L92.2,56.8z M66.7,89.3C66,85.6,63.6,72.5,57.6,57c-0.1,0-0.2,0.1-0.3,0.1
        c-24.1,8.4-32.7,25.1-33.5,26.6c7.2,5.6,16.3,9,26.2,9C55.9,92.7,61.6,91.5,66.7,89.3L66.7,89.3z M18.3,78.6
        c1-1.7,12.7-21,34.7-28.1c0.6-0.2,1.1-0.3,1.7-0.5c-1.1-2.4-2.2-4.8-3.5-7.2c-21.3,6.4-42,6.1-43.9,6.1c0,0.4,0,0.9,0,1.3
        C7.3,61,11.5,71,18.3,78.6L18.3,78.6z M8.2,41.3c1.9,0,19.5,0.1,39.5-5.2C40.6,23.6,33,13,31.8,11.5C19.9,17.1,11,28.1,8.2,41.3
        L8.2,41.3z M40,8.6c1.2,1.6,8.9,12.1,15.9,25c15.2-5.7,21.6-14.3,22.4-15.4C70.8,11.5,60.9,7.4,50,7.4C46.6,7.4,43.2,7.8,40,8.6
        L40,8.6z M83.1,23.1c-0.9,1.2-8.1,10.4-23.8,16.8c1,2,1.9,4.1,2.8,6.2c0.3,0.7,0.6,1.5,0.9,2.2c14.2-1.8,28.3,1.1,29.7,1.4
        C92.6,39.6,89,30.4,83.1,23.1L83.1,23.1z"/>
    </symbol>

    <symbol id="ico_Facebook" viewBox="0 0 100 100">
        <path d="M36.8,19.4v13.8H26.7V50h10.1v50h20.7V50h13.9c0,0,1.3-8.1,1.9-16.9H57.6V21.6c0-1.7,2.3-4,4.5-4h11.3V0
        H58C36.2,0,36.8,16.9,36.8,19.4L36.8,19.4z M36.8,19.4"/>
    </symbol>

    <symbol id="ico_git" viewBox="0 0 100 100">

        <path fill-rule="evenodd" clip-rule="evenodd" d="M50,1.2c-27.6,0-50,22.4-50,50c0,22.1,14.3,40.8,34.2,47.4
        c2.5,0.5,3.4-1.1,3.4-2.4c0-1.2,0-5.1-0.1-9.3c-13.9,3-16.8-5.9-16.8-5.9c-2.3-5.8-5.6-7.3-5.6-7.3c-4.5-3.1,0.3-3,0.3-3
        c5,0.4,7.7,5.2,7.7,5.2c4.5,7.6,11.7,5.4,14.6,4.2c0.4-3.2,1.7-5.4,3.2-6.7c-11.1-1.3-22.8-5.6-22.8-24.7c0-5.5,2-9.9,5.2-13.4
        c-0.5-1.3-2.2-6.3,0.5-13.2c0,0,4.2-1.3,13.8,5.1c4-1.1,8.3-1.7,12.5-1.7c4.2,0,8.5,0.6,12.5,1.7c9.5-6.5,13.7-5.1,13.7-5.1
        c2.7,6.9,1,12,0.5,13.2c3.2,3.5,5.1,8,5.1,13.4c0,19.2-11.7,23.4-22.8,24.7c1.8,1.6,3.4,4.6,3.4,9.3c0,6.7-0.1,12.1-0.1,13.7
        c0,1.3,0.9,2.9,3.4,2.4C85.7,92.1,100,73.3,100,51.2C100,23.6,77.6,1.2,50,1.2z"/>
        <path d="M18.9,73c-0.1,0.2-0.5,0.3-0.9,0.2c-0.4-0.2-0.6-0.5-0.4-0.8c0.1-0.3,0.5-0.3,0.9-0.2C18.9,72.4,19.1,72.8,18.9,73
        L18.9,73z M18.3,72.6"/>
        <path d="M21,75.3c-0.2,0.2-0.7,0.1-1-0.2c-0.3-0.3-0.4-0.8-0.1-1c0.2-0.2,0.7-0.1,1,0.2C21.1,74.6,21.2,75.1,21,75.3L21,75.3z
        M20.5,74.8"/>
        <path d="M22.9,78.2c-0.3,0.2-0.8,0-1.1-0.4c-0.3-0.4-0.3-1,0-1.2c0.3-0.2,0.8,0,1.1,0.4C23.2,77.4,23.2,77.9,22.9,78.2L22.9,78.2
        z M22.9,78.2"/>
        <path d="M25.6,80.9c-0.3,0.3-0.9,0.2-1.3-0.2c-0.4-0.4-0.6-1-0.3-1.3c0.3-0.3,0.9-0.2,1.3,0.2C25.8,80.1,25.9,80.6,25.6,80.9
        L25.6,80.9z M25.6,80.9"/>
        <path d="M29.4,82.6c-0.1,0.4-0.7,0.6-1.2,0.4c-0.6-0.2-0.9-0.6-0.8-1c0.1-0.4,0.7-0.6,1.3-0.4C29.1,81.7,29.5,82.2,29.4,82.6
        L29.4,82.6z M29.4,82.6"/>
        <path d="M33.5,82.9c0,0.4-0.5,0.8-1.1,0.8c-0.6,0-1.1-0.3-1.1-0.7c0-0.4,0.5-0.8,1.1-0.8C33,82.1,33.5,82.4,33.5,82.9L33.5,82.9z
        M33.5,82.9"/>
        <path d="M37.3,82.2c0.1,0.4-0.3,0.8-0.9,0.9c-0.6,0.1-1.1-0.1-1.2-0.5c-0.1-0.4,0.3-0.8,0.9-0.9C36.7,81.6,37.2,81.8,37.3,82.2
        L37.3,82.2z M37.3,82.2"/>
    </symbol>

    <symbol id="ico_GooglePlus" viewBox="0 0 100 100">
        <path d="M0.1,48.4C0.4,32,15.4,17.7,31.8,18.3c7.8-0.4,15.2,3,21.2,7.8c-2.6,2.9-5.2,5.7-8.1,8.3c-7.2-5-17.5-6.4-24.7-0.7
        c-10.3,7.1-10.8,24-0.9,31.7c9.7,8.8,27.9,4.4,30.6-9c-6.1-0.1-12.1,0-18.2-0.2c0-3.6,0-7.2,0-10.8c10.1,0,20.2,0,30.4,0
        C62.7,54,61.6,63,56.4,70c-7.9,11.1-23.8,14.4-36.1,9.6C7.8,74.9-1,61.8,0.1,48.4z"/>
        <path d="M81.8,36.3c3,0,6,0,9,0c0,3,0,6.1,0.1,9.1c3,0,6.1,0,9.1,0.1c0,3,0,6,0,9c-3,0-6,0-9.1,0.1c0,3,0,6.1-0.1,9.1
        c-3,0-6,0-9,0c0-3,0-6-0.1-9.1c-3,0-6.1-0.1-9.1-0.1c0-3,0-6,0-9c3,0,6,0,9.1-0.1C81.8,42.4,81.8,39.4,81.8,36.3z"/>
    </symbol>

    <symbol id="ico_Instagram" viewBox="0 0 100 100">
        <path fill-rule="evenodd" clip-rule="evenodd" d="M12.8,0h74.3C94.2,0,100,5.2,100,12.8v74.3
        c0,7.6-5.8,12.8-12.8,12.8H12.8C5.8,100,0,94.8,0,87.2V12.8C0,5.2,5.8,0,12.8,0L12.8,0z M72.8,11.1c-2.5,0-4.5,2-4.5,4.5v10.8
        c0,2.5,2,4.5,4.5,4.5h11.3c2.5,0,4.5-2,4.5-4.5V15.6c0-2.5-2-4.5-4.5-4.5H72.8z M88.7,42.3h-8.8c0.8,2.7,1.3,5.6,1.3,8.6
        C81.2,67.5,67.3,81,50.1,81C32.9,81,19,67.5,19,50.9c0-3,0.5-5.9,1.3-8.6h-9.2v42.2c0,2.2,1.8,4,4,4h69.6c2.2,0,4-1.8,4-4V42.3z
        M50.1,30.3C39,30.3,30,39,30,49.8s9,19.5,20.1,19.5c11.1,0,20.1-8.7,20.1-19.5S61.2,30.3,50.1,30.3L50.1,30.3z M50.1,30.3"/>
    </symbol>

    <symbol id="ico_LinkedIn" viewBox="0 0 100 100">
        <path d="M22.4,99.9H1.6V33.2h20.7V99.9z M12,24.1c-6.7,0-12-5.4-12-12s5.4-12,12-12c6.6,0,12,5.4,12,12
        S18.7,24.1,12,24.1z M100,99.9H79.3V67.5c0-7.7-0.1-17.7-10.8-17.7c-10.8,0-12.4,8.4-12.4,17.1v33H35.4V33.2h19.9v9.1h0.3
        c2.8-5.2,9.5-10.8,19.6-10.8c21,0,24.9,13.8,24.9,31.8V99.9z"/>
    </symbol>

    <symbol id="ico_Medium" viewBox="0 0 100 100">
        <path d="M99.3,22.9L67.6,7.1C67.4,7,67.3,7,67.1,7c0,0,0,0,0,0c-0.4,0-0.8,0.2-1,0.5L46.6,39.2l21.8,35.4L99.6,24
        C99.8,23.6,99.7,23.1,99.3,22.9z"/>
        <polygon points="36.3,28.1 36.3,62.3 66.7,77.5"/>
        <path d="M69.3,78.8l27.9,14c1.5,0.8,2.8,0,2.8-1.7V28.9L69.3,78.8z"/>
        <path d="M32.9,23.1L3.7,8.5L1.8,7.5C1.6,7.4,1.3,7.3,1.1,7.3c-0.3,0-0.6,0.1-0.8,0.4C0.1,7.9,0,8.3,0,8.7v66.7
        c0,1.1,0.8,2.5,1.8,3l28.7,14.4c0.4,0.2,0.8,0.3,1.1,0.3c1,0,1.6-0.7,1.6-2V23.7C33.3,23.5,33.2,23.2,32.9,23.1z"/>
    </symbol>

    <symbol id="ico_newsletter" viewBox="0 0 100 100">
        <path d="M90,10H10c-5.5,0-9.9,4.5-9.9,10l0,60c0,5.5,4.5,10,10,10h80c5.5,0,10-4.5,10-10V20C100,14.5,95.5,10,90,10z
        M90,80H10V30l40,25l40-25V80z M50,45L10,20h80L50,45z"/>
    </symbol>

    <symbol id="ico_Pinterest" viewBox="0 0 100 100">
        <path d="M100,50c0,27.6-22.4,50-50,50c-5.2,0-10.1-0.8-14.8-2.2c2-3.3,5.1-8.8,6.2-13.1
        c0.6-2.3,3.1-11.9,3.1-11.9c1.6,3.1,6.4,5.7,11.5,5.7c15.1,0,25.9-13.9,25.9-31.1c0-16.5-13.5-28.9-30.8-28.9
        c-21.6,0-33,14.5-33,30.3c0,7.3,3.9,16.5,10.1,19.4c0.9,0.4,1.5,0.2,1.7-0.7c0.2-0.7,1-4.1,1.4-5.7c0.1-0.5,0.1-0.9-0.3-1.4
        c-2.1-2.5-3.7-7.1-3.7-11.4c0-11,8.4-21.7,22.6-21.7c12.3,0,20.9,8.4,20.9,20.3c0,13.5-6.8,22.9-15.7,22.9c-4.9,0-8.6-4.1-7.4-9
        c1.4-5.9,4.1-12.4,4.1-16.7c0-3.8-2.1-7-6.3-7c-5,0-9,5.2-9,12.1c0,4.4,1.5,7.4,1.5,7.4s-5,20.9-5.9,24.9
        c-1,4.3-0.6,10.4-0.2,14.3C13.2,89.3,0,71.2,0,50C0,22.4,22.4,0,50,0C77.6,0,100,22.4,100,50z"/>
    </symbol>

    <symbol id="ico_RSS" viewBox="0 0 100 100">
        <circle cx="13.5" cy="86.6" r="13.3"/>
        <path d="M0.2,53.1c12.4,0,24.1,4.9,32.9,13.7c8.8,8.8,13.6,20.6,13.6,33.1h19.2c0-36.4-29.5-66-65.7-66V53.1z"/>
        <path d="M0.2,19.2c44.3,0,80.4,36.3,80.4,80.8h19.2C99.8,44.9,55.1,0,0.2,0V19.2z"/>
    </symbol>

    <symbol id="ico_share" viewBox="0 0 100 100">
        <path d="M80.1,70.7c-3.8,0-7.3,1.5-9.9,3.9L34.5,53.7c0.3-1.1,0.5-2.3,0.5-3.5c0-1.2-0.2-2.4-0.5-3.5l35.4-20.7
        c2.7,2.5,6.3,4.1,10.2,4.1c8.3,0,15.1-6.8,15.1-15.1S88.4,0,80.1,0S65.1,6.8,65.1,15.1c0,1.2,0.2,2.4,0.5,3.5L30.1,39.2
        c-2.7-2.5-6.3-4.1-10.2-4.1c-8.3,0-15.1,6.8-15.1,15.1s6.8,15.1,15.1,15.1c4,0,7.6-1.6,10.2-4.1l35.8,20.9
        c-0.3,1.1-0.4,2.2-0.4,3.3c0,8.1,6.6,14.6,14.6,14.6s14.6-6.6,14.6-14.6S88.2,70.7,80.1,70.7z"/>
    </symbol>

    <symbol id="ico_Snapchat" viewBox="0 0 100 100">
        <path d="M50.6,96.9c-0.3,0-0.5,0-0.8,0h0c-0.2,0-0.3,0-0.5,0c-5.9,0-9.7-2.7-13.4-5.3c-2.5-1.8-4.9-3.5-7.8-4
        c-1.4-0.2-2.7-0.3-4.1-0.3c-2.4,0-4.3,0.4-5.6,0.6c-0.8,0.2-1.6,0.3-2.1,0.3c-0.6,0-1.2-0.1-1.5-1c-0.2-0.8-0.4-1.6-0.6-2.3
        c-0.4-1.9-0.7-3.1-1.5-3.2c-9.4-1.5-12.1-3.4-12.7-4.8C0.1,76.7,0,76.5,0,76.3c0-0.5,0.4-1,0.9-1.1C15.3,72.8,21.8,58,22.1,57.4
        c0,0,0,0,0-0.1c0.9-1.8,1.1-3.3,0.5-4.6c-1-2.3-4.2-3.4-6.4-4c-0.5-0.2-1-0.3-1.4-0.5c-4.3-1.7-4.6-3.4-4.5-4.3
        c0.3-1.5,2.3-2.6,3.9-2.6c0.4,0,0.8,0.1,1.2,0.2c1.9,0.9,3.7,1.4,5.1,1.4c2.1,0,3-0.9,3.1-1c-0.1-1-0.1-2-0.2-3.1
        c-0.4-6.8-1-15.3,1.2-20.2C31.2,4.2,44.9,3.1,49,3.1c0.1,0,1.8,0,1.8,0l0.2,0c4.1,0,17.8,1.1,24.3,15.7c2.2,4.8,1.6,13.3,1.2,20.2
        l0,0.3c-0.1,1-0.1,1.9-0.2,2.8c0.1,0.1,0.9,0.9,2.8,1h0c1.4-0.1,3.1-0.5,4.8-1.3c0.5-0.2,1.1-0.3,1.5-0.3c0.6,0,1.2,0.1,1.7,0.3
        l0,0c1.5,0.5,2.4,1.5,2.4,2.6c0,1-0.7,2.5-4.5,4c-0.4,0.2-0.9,0.3-1.4,0.5c-2.1,0.7-5.4,1.7-6.4,4c-0.5,1.3-0.4,2.8,0.5,4.6
        c0,0,0,0,0,0.1c0.3,0.6,6.7,15.4,21.2,17.8c0.5,0.1,0.9,0.6,0.9,1.1c0,0.2-0.1,0.4-0.1,0.6c-0.6,1.4-3.3,3.4-12.7,4.8
        c-0.8,0.1-1.1,1.1-1.5,3.2c-0.2,0.8-0.3,1.5-0.6,2.3c-0.2,0.7-0.6,1-1.3,1h-0.1c-0.5,0-1.2-0.1-2.1-0.3c-1.6-0.3-3.4-0.6-5.6-0.6
        c-1.3,0-2.7,0.1-4.1,0.3c-2.8,0.5-5.2,2.2-7.7,4C60.4,94.2,56.6,96.9,50.6,96.9z"/>
    </symbol>

    <symbol id="ico_Tumblr" viewBox="0 0 100 100">
        <path opacity="0.25" d="M64.9,72.1c1.2,0,2.5-0.2,3.7-0.5V50.4h16V31.9h-9.9v10.2h-16v23.4C58.8,71.4,62.2,72.1,64.9,72.1z
        M68.7,10.2h-9.9v13.5h9.9V10.2z M83,78.1c-1.8,1-4.2,1.8-6.4,2.1l1.6,4.9c-2.9,3.9-10.3,6.5-17,6.7c-0.2,0-0.5,0-0.7,0h0
        c-4.7,0-8.6-0.8-11.8-2.2c3.8,5.8,10.5,10.4,21.6,10.4h0c0.2,0,0.4,0,0.7,0c6.7-0.1,14-2.8,17-6.7L83,78.1z"/>
        <path d="M57.6,93.6c9.4,0,18.6-3.3,21.7-7.4l0.6-0.8l-5.8-17.2c-0.1-0.2-0.2-0.3-0.4-0.3h-1.1h-0.5l-11.4,0
        c-0.2,0-0.3-0.1-0.4-0.3c-0.2-0.6-0.2-1.3-0.3-2.1v-21c0-0.2,0.2-0.4,0.4-0.4h15.3c0.2,0,0.4-0.2,0.4-0.4V22.2
        c0-0.2-0.2-0.4-0.4-0.4H60.6c-0.2,0-0.4-0.2-0.4-0.4v-21c0-0.2-0.2-0.4-0.4-0.4H48h-4.2H33.2c-1.9,0-4.1,1.4-4.4,4
        c-1.3,10.8-6.3,17.3-15.6,20.5l-1,0.3c-0.2,0.1-0.3,0.2-0.3,0.4v18.5c0,0.2,0.2,0.4,0.4,0.4h7.3h0h2.3c0,0,0,17.3,0,22.8
        C21.8,85,34.3,93.6,57.6,93.6z M75.5,84.8c-2.9,2.8-8.9,4.9-14.7,5c-0.2,0-0.4,0-0.6,0h0c-18.9,0-24-14.4-24-23V40.6
        c0-0.2-0.2-0.4-0.4-0.4h-9.1c-0.2,0-0.4-0.2-0.4-0.4V27.9c0-0.2,0.1-0.3,0.2-0.4c9.8-3.8,15.2-11.4,16.7-23.1
        c0.1-0.6,0.6-0.7,0.6-0.7H56c0.2,0,0.4,0.2,0.4,0.4v21c0,0.2,0.2,0.4,0.4,0.4H72c0.2,0,0.4,0.2,0.4,0.4v13.9
        c0,0.2-0.2,0.4-0.4,0.4H56.7c-0.2,0-0.4,0.2-0.4,0.4l0,24.9c0.1,5.6,2.8,8.5,8.1,8.5c2.1,0,4.6-0.5,6.8-1.3
        c0.2-0.1,0.4,0,0.5,0.2l3.9,11.5C75.6,84.6,75.6,84.7,75.5,84.8z"/>
    </symbol>

    <symbol id="ico_Twitter" viewBox="0 0 100 100">
        <path d="M100,19c-3.7,1.6-7.6,2.7-11.8,3.2c4.2-2.5,7.5-6.6,9-11.4c-4,2.4-8.4,4.1-13.1,5c-3.7-4-9.1-6.5-15-6.5
        c-11.3,0-20.5,9.2-20.5,20.5c0,1.6,0.2,3.2,0.5,4.7c-17.1-0.9-32.2-9-42.3-21.4c-1.8,3-2.8,6.6-2.8,10.3c0,7.1,3.6,13.4,9.1,17.1
        c-3.4-0.1-6.5-1-9.3-2.6v0.3c0,9.9,7.1,18.2,16.4,20.1c-1.7,0.5-3.5,0.7-5.4,0.7c-1.3,0-2.6-0.1-3.9-0.4
        c2.6,8.1,10.2,14.1,19.2,14.2c-7,5.5-15.9,8.8-25.5,8.8c-1.6,0-3.3-0.1-4.9-0.3c9.1,5.8,19.9,9.2,31.5,9.2
        c37.7,0,58.3-31.2,58.3-58.3l-0.1-2.7C93.8,26.7,97.3,23.1,100,19L100,19z M100,19"/>
    </symbol>
    <!-- /row-03 - Social Icons -->

    <!-- row-04 - Social Icons -->
    <symbol id="ico_Vimeo" viewBox="0 0 100 100">
        <path d="M100,26.8c-0.4,9.7-7.2,23.1-20.4,40C66,84.4,54.5,93.2,45,93.2c-5.8,0-10.8-5.4-14.8-16.1
        c-2.7-9.9-5.4-19.7-8.1-29.6c-3-10.8-6.2-16.1-9.6-16.1c-0.7,0-3.4,1.6-7.8,4.7L0,30c4.9-4.3,9.8-8.7,14.6-13
        c6.6-5.7,11.5-8.7,14.8-9c7.8-0.7,12.6,4.6,14.4,16c1.9,12.3,3.3,19.9,4,22.9c2.2,10.2,4.7,15.3,7.4,15.3c2.1,0,5.2-3.3,9.4-9.9
        c4.2-6.6,6.4-11.6,6.7-15.1c0.6-5.7-1.6-8.6-6.7-8.6c-2.4,0-4.9,0.6-7.4,1.6C62.2,14.1,71.6,6.3,85.4,6.8
        C95.7,7.1,100.5,13.7,100,26.8z"/>
    </symbol>

    <symbol id="ico_VK" viewBox="0 0 100 100">
        <path fill-rule="evenodd" clip-rule="evenodd" d="M48.9,78.3h6c0,0,1.8-0.2,2.7-1.2c0.8-0.9,0.8-2.6,0.8-2.6
        s-0.1-8,3.6-9.2c3.7-1.2,8.4,7.8,13.4,11.2c3.8,2.6,6.6,2,6.6,2l13.4-0.2c0,0,7-0.4,3.7-5.9c-0.3-0.4-1.9-4.1-9.9-11.5
        c-8.4-7.8-7.3-6.5,2.8-20c6.1-8.2,8.6-13.2,7.8-15.3c-0.7-2-5.2-1.5-5.2-1.5l-15,0.1c0,0-1.1-0.2-1.9,0.3
        c-0.8,0.5-1.3,1.6-1.3,1.6s-2.4,6.3-5.6,11.7c-6.7,11.4-9.4,12-10.5,11.3c-2.5-1.6-1.9-6.6-1.9-10.1c0-11,1.7-15.6-3.3-16.8
        c-1.6-0.4-2.8-0.7-7-0.7c-5.4-0.1-9.9,0-12.5,1.3c-1.7,0.8-3,2.7-2.2,2.8c1,0.1,3.2,0.6,4.4,2.2c1.5,2.1,1.5,6.8,1.5,6.8
        s0.9,13-2.1,14.6c-2,1.1-4.8-1.2-10.8-11.5c-3.1-5.3-5.4-11.1-5.4-11.1s-0.4-1.1-1.2-1.7c-1-0.7-2.3-0.9-2.3-0.9L3.3,24.1
        c0,0-2.1,0.1-2.9,1c-0.7,0.8-0.1,2.5-0.1,2.5S11.5,53.8,24.1,67C35.7,79.1,48.9,78.3,48.9,78.3L48.9,78.3z"/>
    </symbol>

    <symbol id="ico_YouTube" viewBox="0 0 100 100">
        <path opacity="0.12" fill-rule="evenodd" clip-rule="evenodd" d="M39.7,34.9l23.7,15.8
        l3.3-1.7L39.7,34.9z"/>

        <path d="M99,30c0,0-1-6.9-4-9.9c-3.8-4-8.1-4-10-4.2c-14-1-35-1-35-1h0c0,0-21,0-35,1c-2,0.2-6.2,0.3-10,4.2c-3,3-4,9.9-4,9.9
        s-1,8.1-1,16.2v7.6C0,61.9,1,70,1,70s1,6.9,4,9.9c3.8,4,8.8,3.9,11,4.3c8,0.8,34,1,34,1s21,0,35-1c2-0.2,6.2-0.3,10-4.2
        c3-3,4-9.9,4-9.9s1-8.1,1-16.2v-7.6C100,38.1,99,30,99,30z M39.7,63l0-28.1l27,14.1L39.7,63z"/>
    </symbol>








    <symbol id="ico_facebookMessenger" viewBox="0 0 100 100">
        <path d="M257,93c-88.918,0-161,67.157-161,150c0,47.205,23.412,89.311,60,116.807V417l54.819-30.273   C225.449,390.801,240.948,393,257,393c88.918,0,161-67.157,161-150S345.918,93,257,93z M273,295l-41-44l-80,44l88-94l42,44l79-44    L273,295z"/>
    </symbol>


    <!-- /row-04 - Social Icons -->





<!-- UI Icons -->

    <symbol id="ico_ui_plus" viewBox="0 0 100 100">
        <path d="M50,0C22.5,0,0,22.5,0,50c0,27.5,22.5,50,50,50c27.5,0,50-22.5,50-50C100,22.5,77.5,0,50,0L50,0z M75,55H55v20H45V55H25
            V45h20V25h10v20h20V55z M75,55"/>
    </symbol>

    <symbol id="ico_ui_minus" viewBox="0 0 100 100">
        <path d="M50,0C22.5,0,0,22.5,0,50c0,27.5,22.5,50,50,50c27.5,0,50-22.5,50-50C100,22.5,77.5,0,50,0L50,0z M75,55H25V45h50V55
             M75,55"/>
    </symbol>
</svg>